<svg xmlns="http://www.w3.org/2000/svg" id="_Слой_1" data-name="Слой 1" viewBox="0 0 825 817"><defs><clipPath id="clippath"><path d="M550.61 545.82h97.12v130.42h-97.12z" class="cls-72"/></clipPath><clipPath id="clippath-1"><path d="M534.85 498.84c-1.96 2.27-4 4.48-6.11 6.61-24.85 25.21-59.39 40.83-97.58 40.83-20.79 0-40.48-4.65-58.13-12.94v126.64c18.67 4.38 38.13 6.71 58.13 6.71 68.89 0 131.36-27.5 177.02-72.13 14.94-14.6 28.58-30.85 39.55-48.75" class="cls-72"/></clipPath><clipPath id="clippath-2"><path d="M550.61 526.46h97.12v130.42h-97.12z" class="cls-72"/></clipPath><clipPath id="clippath-3"><path d="M525.18 167.9c-22.97-6.85-47.31-10.55-72.51-10.55-139.89 0-253.29 113.4-253.29 253.29 0 89.4 46.32 167.98 116.26 213.05V416.91c0-1.31.07-2.6.17-3.89-.1-2.17-.17-4.34-.17-6.54 0-75.68 61.35-137.03 137.03-137.03 26.63 0 51.47 7.61 72.51 20.76V167.89Z" class="cls-72"/></clipPath><clipPath id="clippath-4"><circle cx="429.52" cy="395.09" r="63.32" class="cls-72"/></clipPath><clipPath id="clippath-5"><path d="M534.85 479.48c-1.96 2.27-4 4.48-6.11 6.61-24.85 25.21-59.39 40.83-97.58 40.83-20.79 0-40.48-4.65-58.13-12.94v126.64c18.67 4.38 38.13 6.71 58.13 6.71 68.89 0 131.36-27.5 177.02-72.13 14.94-14.6 28.58-30.85 39.55-48.75" class="cls-72"/></clipPath><clipPath id="clippath-6"><path d="M607.58 212.89c-45.66-44.62-108.13-72.12-177.02-72.12-139.89 0-253.29 113.4-253.29 253.29 0 89.4 46.32 167.98 116.26 213.05V400.33c0-1.31.07-2.6.17-3.89-.1-2.17-.17-4.35-.17-6.54 0-75.68 61.35-137.03 137.03-137.03 39.27 0 74.67 16.52 99.66 42.98" class="cls-72"/></clipPath><style>.cls-1{fill:#1386e8}.cls-2{fill:#0c49cd}.cls-3{fill:#179ff3}.cls-4{fill:#17a0f3}.cls-5{fill:#1174df}.cls-6{fill:#1698f0}.cls-7{fill:#0b43ca}.cls-8{fill:#1069db}.cls-9{fill:#19affa}.cls-10{fill:#0e57d3}.cls-11{fill:#169df2}.cls-12{fill:#0721bb}.cls-13{fill:#18aefa}.cls-14{fill:#106cdc}.cls-16{fill:#0618b6}.cls-17{fill:#0b42c9}.cls-18{fill:#106edd}.cls-19{fill:#19b3fc}.cls-20{fill:#0512b4}.cls-21{fill:#0d50d0}.cls-22{fill:#0935c4}.cls-23{fill:#0e5dd6}.cls-25{fill:#0409b0}.cls-26{fill:#082bbf}.cls-27{fill:#0f65d9}.cls-28{fill:#0a3cc7}.cls-29{fill:#19b1fb}.cls-30{fill:#1277e1}.cls-31{fill:#1385e7}.cls-32{fill:#0b40c8}.cls-33{fill:#1173df}.cls-34{fill:#0828be}.cls-35{fill:#092fc1}.cls-36{fill:#1489e9}.cls-37{fill:#0e5ad4}.cls-38{fill:#18a9f7}.cls-39{fill:#1592ed}.cls-40{fill:#1067da}.cls-41{fill:#061cb8}.cls-42{fill:#0408af}.cls-43{fill:#0725bc}.cls-44{fill:#0d52d1}.cls-45{fill:#0931c2}.cls-46{fill:#0b44ca}.cls-47{fill:#19b4fc}.cls-48{fill:#17a4f5}.cls-49{fill:#17a3f5}.cls-50{fill:#1ab8fe}.cls-51{fill:#050fb2}.cls-52{fill:#1abaff}.cls-53{fill:#1381e5}.cls-54{fill:#0933c3}.cls-55{fill:#17a1f4}.cls-56{fill:#1384e7}.cls-57{fill:#1594ee}.cls-58{fill:#0d51d0}.cls-59{fill:#148ae9}.cls-60{fill:#1176e0}.cls-61{fill:#0a37c4}.cls-62{fill:#1380e5}.cls-63{fill:#18adf9}.cls-64{fill:#0d4fcf}.cls-65{fill:#0515b5}.cls-66{fill:#148cea}.cls-67{fill:#0c47cc}.cls-68{fill:#169bf1}.cls-69{fill:#0e5cd5}.cls-70{fill:#0510b3}.cls-71{fill:#0c4ecf}.cls-72{fill:none}.cls-73{fill:#106adb}.cls-74{fill:#0c48cc}.cls-75{fill:#127ce3}.cls-76{fill:#0b41c9}.cls-77{fill:#0c4acd}.cls-78{fill:#0e58d3}.cls-79{fill:#0934c3}.cls-80{fill:#1596ef}.cls-81{fill:#1279e2}.cls-82{fill:#18abf8}.cls-83{fill:#0617b6}.cls-85{fill:#1383e6}.cls-86{fill:#1172df}.cls-87{fill:#0f5fd6}.cls-88{fill:#0b45cb}.cls-89{fill:#1278e1}.cls-90{fill:#19b2fb}.cls-91{fill:#1382e6}.cls-92{fill:#106ddc}.cls-93{fill:#0513b4}.cls-94{fill:#040db2}.cls-95{fill:#148bea}.cls-97{fill:#0e59d4}.cls-98{fill:#0d55d2}.cls-99{fill:#148eeb}.cls-100{fill:#061db9}.cls-101{fill:#0f61d7}.cls-102{fill:#0f66d9}.cls-103{fill:#0305ae}.cls-104{fill:#18aaf8}.cls-105{fill:#0a3ac6}.cls-106{fill:#0b46cb}.cls-107{fill:#148deb}.cls-108{fill:#127be3}.cls-109{fill:#1ab9ff}.cls-110{fill:#158fec}.cls-111{fill:#0827bd}.cls-112{fill:#0a3bc6}.cls-113{fill:#0936c4}.cls-114{fill:#18a8f7}.cls-116{fill:#106bdb}.cls-117{fill:#169cf1}.cls-118{fill:#17a2f4}.cls-119{fill:#0516b6}.cls-120{fill:#19b5fd}.cls-121{fill:#061bb8}.cls-122{fill:#0a38c5}.cls-123{fill:#1170de}.cls-124{fill:#1068da}.cls-125{fill:#040bb1}.cls-126{fill:#17a5f6}.cls-127{fill:#0e5bd5}.cls-128{fill:#082abf}.cls-129{fill:#0306ae}.cls-130{fill:#169af1}.cls-131{fill:#19b0fa}.cls-132{fill:#1699f0}.cls-133{fill:#127ae2}.cls-134{fill:#1487e8}.cls-135{fill:#0303ad}.cls-136{fill:#0407af}.cls-137{fill:#0829be}.cls-138{fill:#19b6fd}.cls-139{fill:#082cbf}.cls-140{fill:#1488e8}.cls-141{fill:#1171de}.cls-142{fill:#0c4dce}.cls-143{fill:#0304ad}.cls-144{fill:#0d53d1}.cls-145{fill:#0f60d6}.cls-146{fill:#127ee4}.cls-147{fill:#1593ed}.cls-148{fill:#082ec0}.cls-149{fill:#0723bb}.cls-150{fill:#0f63d8}.cls-151{fill:#0619b7}.cls-152{fill:#127de4}.cls-153{fill:#0f64d8}.cls-154{fill:#1590ec}.cls-155{fill:#0f62d7}.cls-156{fill:#0720ba}.cls-157{fill:#1591ed}.cls-158{fill:#0930c1}.cls-159{fill:#0b3fc8}.cls-160{fill:#1595ee}.cls-161{fill:#0726bd}.cls-162{fill:#082dc0}.cls-163{fill:#040eb2}.cls-165{fill:#18a7f6}.cls-166{fill:#0a39c5}.cls-167{fill:#040ab0}.cls-168{fill:#17a6f6}.cls-169{fill:#1697ef}.cls-170{fill:#0a3dc7}.cls-171{fill:#169ef2}.cls-172{fill:#0c4bcd}.cls-173{fill:#0722bb}.cls-174{fill:#137fe4}.cls-175{fill:#061eb9}.cls-176{fill:#0511b3}.cls-177{fill:#040cb1}.cls-179{fill:#1175e0}.cls-180{fill:#071fba}.cls-181{fill:#0d56d2}.cls-182{fill:#18acf9}.cls-183{fill:#0a3ec8}.cls-184{fill:#0932c2}.cls-185{fill:#0c4cce}.cls-186{fill:#061ab7}.cls-187{fill:#0514b5}.cls-188{fill:#0d54d1}.cls-189{fill:#0724bc}.cls-190{fill:#1ab7fe}.cls-191{fill:#116fdd}</style></defs><g style="clip-path:url(#clippath)"><path d="m647.73 636.56-97.12-4.73v-86.01h97.12zM647.73 636.85l-97.12-4.74v-.28l97.12 4.73z" class="cls-135"/><path d="m647.73 637.13-97.12-4.73v-.29l97.12 4.74z" class="cls-143"/><path d="m647.73 637.42-97.12-4.74v-.28l97.12 4.73z" class="cls-103"/><path d="m647.73 637.7-97.12-4.73v-.29l97.12 4.74z" class="cls-129"/><path d="m647.73 637.99-97.12-4.74v-.28l97.12 4.73z" class="cls-136"/><path d="m647.73 638.27-97.12-4.74v-.28l97.12 4.74z" class="cls-42"/><path d="m647.73 638.56-97.12-4.74v-.29l97.12 4.74z" class="cls-25"/><path d="m647.73 638.84-97.12-4.74v-.28l97.12 4.74z" class="cls-167"/><path d="m647.73 639.13-97.12-4.74v-.29l97.12 4.74z" class="cls-125"/><path d="m647.73 639.41-97.12-4.74v-.28l97.12 4.74z" class="cls-177"/><path d="m647.73 639.7-97.12-4.74v-.29l97.12 4.74z" class="cls-94"/><path d="m647.73 639.98-97.12-4.74v-.28l97.12 4.74z" class="cls-163"/><path d="m647.73 640.27-97.12-4.74v-.29l97.12 4.74z" class="cls-51"/><path d="m647.73 640.55-97.12-4.74v-.28l97.12 4.74z" class="cls-70"/><path d="m647.73 640.84-97.12-4.74v-.29l97.12 4.74z" class="cls-176"/><path d="m647.73 641.12-97.12-4.74v-.28l97.12 4.74z" class="cls-20"/><path d="m647.73 641.4-97.12-4.73v-.29l97.12 4.74z" class="cls-93"/><path d="m647.73 641.69-97.12-4.74v-.28l97.12 4.73z" class="cls-187"/><path d="m647.73 641.97-97.12-4.73v-.29l97.12 4.74z" class="cls-65"/><path d="m647.73 642.26-97.12-4.74v-.28l97.12 4.73z" class="cls-119"/><path d="m647.73 642.54-97.12-4.73v-.29l97.12 4.74z" class="cls-83"/><path d="m647.73 642.83-97.12-4.74v-.28l97.12 4.73z" class="cls-16"/><path d="m647.73 643.11-97.12-4.73v-.29l97.12 4.74z" class="cls-151"/><path d="m647.73 643.4-97.12-4.74v-.28l97.12 4.73z" class="cls-186"/><path d="m647.73 643.68-97.12-4.73v-.29l97.12 4.74z" class="cls-121"/><path d="m647.73 643.97-97.12-4.74v-.28l97.12 4.73z" class="cls-41"/><path d="m647.73 644.25-97.12-4.74v-.28l97.12 4.74z" class="cls-100"/><path d="m647.73 644.54-97.12-4.74v-.29l97.12 4.74z" class="cls-175"/><path d="m647.73 644.82-97.12-4.74v-.28l97.12 4.74z" class="cls-180"/><path d="m647.73 645.11-97.12-4.74v-.29l97.12 4.74z" class="cls-156"/><path d="m647.73 645.39-97.12-4.74v-.28l97.12 4.74z" class="cls-12"/><path d="m647.73 645.68-97.12-4.74v-.29l97.12 4.74z" class="cls-173"/><path d="m647.73 645.96-97.12-4.74v-.28l97.12 4.74z" class="cls-149"/><path d="m647.73 646.25-97.12-4.74v-.29l97.12 4.74z" class="cls-189"/><path d="m647.73 646.53-97.12-4.74v-.28l97.12 4.74z" class="cls-43"/><path d="m647.73 646.82-97.12-4.74v-.29l97.12 4.74z" class="cls-161"/><path d="m647.73 647.1-97.12-4.74v-.28l97.12 4.74z" class="cls-111"/><path d="m647.73 647.38-97.12-4.73v-.29l97.12 4.74z" class="cls-34"/><path d="m647.73 647.67-97.12-4.74v-.28l97.12 4.73z" class="cls-137"/><path d="m647.73 647.95-97.12-4.73v-.29l97.12 4.74z" class="cls-128"/><path d="m647.73 648.24-97.12-4.74v-.28l97.12 4.73z" class="cls-26"/><path d="m647.73 648.52-97.12-4.73v-.29l97.12 4.74z" class="cls-139"/><path d="m647.73 648.81-97.12-4.74v-.28l97.12 4.73z" class="cls-162"/><path d="m647.73 649.09-97.12-4.73v-.29l97.12 4.74z" class="cls-148"/><path d="m647.73 649.38-97.12-4.74v-.28l97.12 4.73z" class="cls-35"/><path d="m647.73 649.66-97.12-4.73v-.29l97.12 4.74z" class="cls-158"/><path d="m647.73 649.95-97.12-4.74v-.28l97.12 4.73z" class="cls-45"/><path d="m647.73 650.23-97.12-4.74v-.28l97.12 4.74z" class="cls-184"/><path d="m647.73 650.52-97.12-4.74v-.29l97.12 4.74z" class="cls-54"/><path d="m647.73 650.8-97.12-4.74v-.28l97.12 4.74z" class="cls-79"/><path d="m647.73 651.09-97.12-4.74v-.29l97.12 4.74z" class="cls-22"/><path d="m647.73 651.37-97.12-4.74v-.28l97.12 4.74z" class="cls-113"/><path d="m647.73 651.66-97.12-4.74v-.29l97.12 4.74z" class="cls-61"/><path d="m647.73 651.94-97.12-4.74v-.28l97.12 4.74z" class="cls-122"/><path d="m647.73 652.23-97.12-4.74v-.29l97.12 4.74z" class="cls-166"/><path d="m647.73 652.51-97.12-4.74v-.28l97.12 4.74z" class="cls-105"/><path d="m647.73 652.8-97.12-4.74v-.29l97.12 4.74z" class="cls-112"/><path d="m647.73 653.08-97.12-4.74v-.28l97.12 4.74z" class="cls-28"/><path d="m647.73 653.36-97.12-4.73v-.29l97.12 4.74z" class="cls-170"/><path d="m647.73 653.65-97.12-4.74v-.28l97.12 4.73z" class="cls-183"/><path d="m647.73 653.93-97.12-4.73v-.29l97.12 4.74z" class="cls-159"/><path d="m647.73 654.22-97.12-4.74v-.28l97.12 4.73z" class="cls-32"/><path d="m647.73 654.5-97.12-4.73v-.29l97.12 4.74z" class="cls-76"/><path d="m647.73 654.79-97.12-4.74v-.28l97.12 4.73z" class="cls-17"/><path d="m647.73 655.07-97.12-4.73v-.29l97.12 4.74z" class="cls-7"/><path d="m647.73 655.36-97.12-4.74v-.28l97.12 4.73z" class="cls-46"/><path d="m647.73 655.64-97.12-4.73v-.29l97.12 4.74z" class="cls-88"/><path d="m647.73 655.93-97.12-4.74v-.28l97.12 4.73z" class="cls-106"/><path d="m647.73 656.21-97.12-4.74v-.28l97.12 4.74z" class="cls-67"/><path d="m647.73 656.5-97.12-4.74v-.29l97.12 4.74z" class="cls-74"/><path d="m647.73 656.78-97.12-4.74v-.28l97.12 4.74z" class="cls-2"/><path d="m647.73 657.07-97.12-4.74v-.29l97.12 4.74z" class="cls-77"/><path d="m647.73 657.35-97.12-4.74v-.28l97.12 4.74z" class="cls-172"/><path d="m647.73 657.64-97.12-4.74v-.29l97.12 4.74z" class="cls-185"/><path d="m647.73 657.92-97.12-4.74v-.28l97.12 4.74z" class="cls-142"/><path d="m647.73 658.21-97.12-4.74v-.29l97.12 4.74z" class="cls-71"/><path d="m647.73 658.49-97.12-4.74v-.28l97.12 4.74z" class="cls-64"/><path d="m647.73 658.78-97.12-4.74v-.29l97.12 4.74z" class="cls-21"/><path d="m647.73 659.06-97.12-4.74v-.28l97.12 4.74z" class="cls-58"/><path d="m647.73 659.34-97.12-4.73v-.29l97.12 4.74z" class="cls-44"/><path d="m647.73 659.63-97.12-4.74v-.28l97.12 4.73z" class="cls-144"/><path d="m647.73 659.91-97.12-4.73v-.29l97.12 4.74z" class="cls-188"/><path d="m647.73 660.2-97.12-4.74v-.28l97.12 4.73z" class="cls-98"/><path d="m647.73 660.48-97.12-4.73v-.29l97.12 4.74z" class="cls-181"/><path d="m647.73 660.77-97.12-4.74v-.28l97.12 4.73z" class="cls-10"/><path d="m647.73 661.05-97.12-4.73v-.29l97.12 4.74z" class="cls-78"/><path d="m647.73 661.34-97.12-4.74v-.28l97.12 4.73z" class="cls-97"/><path d="m647.73 661.62-97.12-4.73v-.29l97.12 4.74z" class="cls-37"/><path d="m647.73 661.91-97.12-4.74v-.28l97.12 4.73z" class="cls-127"/><path d="m647.73 662.19-97.12-4.73v-.29l97.12 4.74z" class="cls-69"/><path d="m647.73 662.48-97.12-4.74v-.28l97.12 4.73z" class="cls-23"/><path d="m647.73 662.76-97.12-4.74v-.28l97.12 4.74z" class="cls-87"/><path d="m647.73 663.05-97.12-4.74v-.29l97.12 4.74z" class="cls-145"/><path d="m647.73 663.33-97.12-4.74v-.28l97.12 4.74z" class="cls-101"/><path d="m647.73 663.62-97.12-4.74v-.29l97.12 4.74z" class="cls-155"/><path d="m647.73 663.9-97.12-4.74v-.28l97.12 4.74z" class="cls-150"/><path d="m647.73 664.19-97.12-4.74v-.29l97.12 4.74z" class="cls-153"/><path d="m647.73 664.47-97.12-4.74v-.28l97.12 4.74z" class="cls-27"/><path d="m647.73 664.76-97.12-4.74v-.29l97.12 4.74z" class="cls-102"/><path d="m647.73 665.04-97.12-4.74v-.28l97.12 4.74z" class="cls-40"/><path d="m647.73 665.32-97.12-4.73v-.29l97.12 4.74z" class="cls-124"/><path d="m647.73 665.61-97.12-4.74v-.28l97.12 4.73z" class="cls-8"/><path d="m647.73 665.89-97.12-4.73v-.29l97.12 4.74z" class="cls-73"/><path d="m647.73 666.18-97.12-4.74v-.28l97.12 4.73z" class="cls-116"/><path d="m647.73 666.46-97.12-4.73v-.29l97.12 4.74z" class="cls-14"/><path d="m647.73 666.75-97.12-4.74v-.28l97.12 4.73z" class="cls-92"/><path d="m647.73 667.03-97.12-4.73v-.29l97.12 4.74z" class="cls-18"/><path d="m647.73 667.32-97.12-4.74v-.28l97.12 4.73z" class="cls-191"/><path d="m647.73 667.6-97.12-4.73v-.29l97.12 4.74z" class="cls-123"/><path d="m647.73 667.89-97.12-4.74v-.28l97.12 4.73z" class="cls-141"/><path d="m647.73 668.17-97.12-4.73v-.29l97.12 4.74z" class="cls-86"/><path d="m647.73 668.46-97.12-4.74v-.28l97.12 4.73z" class="cls-33"/><path d="M647.73 668.74 550.61 664v-.28l97.12 4.74z" class="cls-5"/><path d="m647.73 669.03-97.12-4.74V664l97.12 4.74z" class="cls-179"/><path d="m647.73 669.31-97.12-4.74v-.28l97.12 4.74z" class="cls-60"/><path d="m647.73 669.6-97.12-4.74v-.29l97.12 4.74z" class="cls-30"/><path d="m647.73 669.88-97.12-4.74v-.28l97.12 4.74z" class="cls-89"/><path d="m647.73 670.17-97.12-4.74v-.29l97.12 4.74z" class="cls-81"/><path d="m647.73 670.45-97.12-4.74v-.28l97.12 4.74z" class="cls-133"/><path d="M647.73 670.74 550.61 666v-.29l97.12 4.74z" class="cls-108"/><path d="m647.73 671.02-97.12-4.74V666l97.12 4.74z" class="cls-75"/><path d="m647.73 671.31-97.12-4.74v-.29l97.12 4.74z" class="cls-152"/><path d="m647.73 671.59-97.12-4.74v-.28l97.12 4.74z" class="cls-146"/><path d="m647.73 671.87-97.12-4.73v-.29l97.12 4.74z" class="cls-174"/><path d="m647.73 672.16-97.12-4.74v-.28l97.12 4.73z" class="cls-62"/><path d="m647.73 672.44-97.12-4.73v-.29l97.12 4.74z" class="cls-53"/><path d="m647.73 672.73-97.12-4.74v-.28l97.12 4.73z" class="cls-91"/><path d="m647.73 673.01-97.12-4.73v-.29l97.12 4.74z" class="cls-85"/><path d="m647.73 673.3-97.12-4.74v-.28l97.12 4.73z" class="cls-56"/><path d="m647.73 673.58-97.12-4.73v-.29l97.12 4.74z" class="cls-31"/><path d="m647.73 673.87-97.12-4.74v-.28l97.12 4.73z" class="cls-1"/><path d="m647.73 674.15-97.12-4.73v-.29l97.12 4.74z" class="cls-134"/><path d="m647.73 674.44-97.12-4.74v-.28l97.12 4.73z" class="cls-140"/><path d="m647.73 674.72-97.12-4.74v-.28l97.12 4.74z" class="cls-36"/><path d="m647.73 675.01-97.12-4.74v-.29l97.12 4.74z" class="cls-59"/><path d="m647.73 675.29-97.12-4.74v-.28l97.12 4.74z" class="cls-95"/><path d="m647.73 675.58-97.12-4.74v-.29l97.12 4.74z" class="cls-66"/><path d="m647.73 675.86-97.12-4.74v-.28l97.12 4.74z" class="cls-107"/><path d="m647.73 676.15-97.12-4.74v-.29l97.12 4.74z" class="cls-99"/><path d="m643.75 676.24-93.14-4.55v-.28l97.12 4.74v.09z" class="cls-110"/><path d="m637.91 676.24-87.3-4.26v-.29l93.14 4.55z" class="cls-154"/><path d="m632.08 676.24-81.47-3.98v-.28l87.3 4.26z" class="cls-157"/><path d="m626.24 676.24-75.63-3.69v-.29l81.47 3.98z" class="cls-39"/><path d="m620.4 676.24-69.79-3.41v-.28l75.63 3.69z" class="cls-147"/><path d="m614.56 676.24-63.95-3.12v-.29l69.79 3.41z" class="cls-57"/><path d="m608.73 676.24-58.12-2.84v-.28l63.95 3.12z" class="cls-160"/><path d="m602.89 676.24-52.28-2.55v-.29l58.12 2.84z" class="cls-80"/><path d="m597.05 676.24-46.44-2.27v-.28l52.28 2.55z" class="cls-169"/><path d="m591.21 676.24-40.6-1.98v-.29l46.44 2.27z" class="cls-6"/><path d="m585.37 676.24-34.76-1.7v-.28l40.6 1.98z" class="cls-132"/><path d="m579.54 676.24-28.93-1.41v-.29l34.76 1.7z" class="cls-130"/><path d="m573.7 676.24-23.09-1.13v-.28l28.93 1.41z" class="cls-68"/><path d="m567.86 676.24-17.25-.84v-.29l23.09 1.13z" class="cls-117"/><path d="m562.02 676.24-11.41-.56v-.28l17.25.84z" class="cls-11"/><path d="m556.19 676.24-5.58-.28v-.28l11.41.56z" class="cls-171"/><path d="m550.61 675.96 5.58.28h-5.58z" class="cls-3"/></g><g style="clip-path:url(#clippath-1)"><path d="m647.73 500.14-.78-1.3h.78z" class="cls-35"/><path d="m647.73 504.9-3.63-6.06h2.85l.78 1.3z" class="cls-158"/><path d="m647.73 509.67-6.49-10.83h2.86l3.63 6.06z" class="cls-45"/><path d="m647.73 514.43-9.34-15.59h2.85l6.49 10.83z" class="cls-184"/><path d="m647.73 519.19-12.19-20.35h2.85l9.34 15.59z" class="cls-54"/><path d="m647.73 523.95-15.04-25.11h2.85l12.19 20.35z" class="cls-79"/><path d="m647.73 528.72-17.9-29.88h2.86l15.04 25.11z" class="cls-22"/><path d="m647.73 533.48-20.75-34.64h2.85l17.9 29.88z" class="cls-113"/><path d="m647.73 538.24-23.6-39.4h2.85l20.75 34.64z" class="cls-61"/><path d="m647.73 543-26.45-44.16h2.85l23.6 39.4z" class="cls-122"/><path d="m647.73 547.77-29.31-48.93h2.86L647.73 543z" class="cls-166"/><path d="m647.73 552.53-32.16-53.69h2.85l29.31 48.93z" class="cls-105"/><path d="m647.73 557.29-35.01-58.45h2.85l32.16 53.69z" class="cls-112"/><path d="m647.73 562.05-37.87-63.21h2.86l35.01 58.45z" class="cls-28"/><path d="m647.73 566.82-40.72-67.98h2.85l37.87 63.21z" class="cls-170"/><path d="m647.73 571.58-43.57-72.74h2.85l40.72 67.98z" class="cls-183"/><path d="m647.73 576.34-46.42-77.5h2.85l43.57 72.74z" class="cls-159"/><path d="m647.73 581.1-49.28-82.26h2.86l46.42 77.5z" class="cls-32"/><path d="m647.73 585.87-52.13-87.03h2.85l49.28 82.26z" class="cls-76"/><path d="m647.73 590.63-54.98-91.79h2.85l52.13 87.03z" class="cls-17"/><path d="m647.73 593.14-.99.59-56.85-94.89h2.86l54.98 91.79z" class="cls-7"/><path d="m646.74 593.73-2.1 1.26-57.6-96.15h2.85z" class="cls-46"/><path d="m644.64 594.99-2.1 1.26-58.35-97.41h2.85z" class="cls-88"/><path d="m642.54 596.25-2.1 1.26-59.1-98.67h2.85z" class="cls-106"/><path d="m640.44 597.51-2.1 1.25-59.86-99.92h2.86z" class="cls-67"/><path d="m638.34 598.76-2.1 1.26-60.61-101.18h2.85z" class="cls-74"/><path d="m636.24 600.02-2.1 1.26-61.36-102.44h2.85z" class="cls-2"/><path d="m634.14 601.28-2.1 1.26-62.12-103.7h2.86z" class="cls-77"/><path d="m632.04 602.54-2.1 1.25-62.87-104.95h2.85z" class="cls-172"/><path d="m629.94 603.79-2.1 1.26-63.62-106.21h2.85z" class="cls-185"/><path d="m627.84 605.05-2.1 1.26-64.37-107.47h2.85z" class="cls-142"/><path d="m625.74 606.31-2.1 1.26-65.13-108.73h2.86z" class="cls-71"/><path d="m623.64 607.57-2.1 1.25-65.88-109.98h2.85z" class="cls-64"/><path d="m621.54 608.82-2.1 1.26-66.63-111.24h2.85z" class="cls-21"/><path d="m619.44 610.08-2.1 1.26-67.39-112.5h2.86z" class="cls-58"/><path d="m617.34 611.34-2.1 1.26-68.14-113.76h2.85z" class="cls-44"/><path d="m615.24 612.6-2.09 1.25-68.9-115.01h2.85z" class="cls-144"/><path d="m613.15 613.85-2.1 1.26-69.65-116.27h2.85z" class="cls-188"/><path d="m611.05 615.11-2.1 1.26-70.41-117.53h2.86z" class="cls-98"/><path d="m608.95 616.37-2.1 1.26-71.16-118.79h2.85z" class="cls-181"/><path d="m606.85 617.63-2.1 1.25-71.91-120.04h2.85z" class="cls-10"/><path d="m604.75 618.88-2.1 1.26-72.67-121.3h2.86z" class="cls-78"/><path d="m602.65 620.14-2.1 1.26-73.42-122.56h2.85z" class="cls-97"/><path d="m600.55 621.4-2.1 1.26-74.17-123.82h2.85z" class="cls-37"/><path d="m598.45 622.66-2.1 1.26-74.92-125.08h2.85z" class="cls-127"/><path d="m596.35 623.92-2.1 1.25-75.68-126.33h2.86z" class="cls-69"/><path d="m594.25 625.17-2.1 1.26-76.43-127.59h2.85z" class="cls-23"/><path d="m592.15 626.43-2.1 1.26-77.18-128.85h2.85z" class="cls-87"/><path d="m590.05 627.69-2.1 1.26-77.93-130.11h2.85z" class="cls-145"/><path d="m587.95 628.95-2.1 1.25-78.69-131.36h2.86z" class="cls-101"/><path d="m585.85 630.2-2.1 1.26-79.44-132.62h2.85z" class="cls-155"/><path d="m583.75 631.46-2.1 1.26-80.19-133.88h2.85z" class="cls-150"/><path d="m581.65 632.72-2.1 1.26-80.95-135.14h2.86z" class="cls-153"/><path d="m579.55 633.98-2.1 1.25-81.7-136.39h2.85z" class="cls-27"/><path d="m577.45 635.23-2.1 1.26-82.45-137.65h2.85z" class="cls-102"/><path d="m575.35 636.49-2.09 1.26-83.21-138.91h2.85z" class="cls-40"/><path d="m573.26 637.75-2.1 1.26-83.97-140.17h2.86z" class="cls-124"/><path d="m571.16 639.01-2.1 1.25-84.72-141.42h2.85z" class="cls-8"/><path d="m569.06 640.26-2.1 1.26-85.47-142.68h2.85z" class="cls-73"/><path d="m566.96 641.52-2.1 1.26-86.23-143.94h2.86z" class="cls-116"/><path d="m564.86 642.78-2.1 1.26-86.98-145.2h2.85z" class="cls-14"/><path d="m562.76 644.04-2.1 1.25-87.73-146.45h2.85z" class="cls-92"/><path d="m560.66 645.29-2.1 1.26-88.48-147.71h2.85z" class="cls-18"/><path d="m558.56 646.55-2.1 1.26-89.24-148.97h2.86z" class="cls-191"/><path d="m556.46 647.81-2.1 1.26-89.99-150.23h2.85z" class="cls-123"/><path d="m554.36 649.07-2.1 1.26-90.74-151.49h2.85z" class="cls-141"/><path d="m552.26 650.33-2.1 1.25-91.5-152.74h2.86z" class="cls-86"/><path d="m550.16 651.58-2.1 1.26-92.25-154h2.85z" class="cls-33"/><path d="m548.06 652.84-2.1 1.26-93-155.26h2.85z" class="cls-5"/><path d="m545.96 654.1-2.1 1.26-93.75-156.52h2.85z" class="cls-179"/><path d="m543.86 655.36-2.1 1.25-94.51-157.77h2.86z" class="cls-60"/><path d="m541.76 656.61-2.1 1.26-95.26-159.03h2.85z" class="cls-30"/><path d="m539.66 657.87-2.1 1.26-96.01-160.29h2.85z" class="cls-89"/><path d="m537.56 659.13-2.1 1.26-96.77-161.55h2.86z" class="cls-81"/><path d="m535.46 660.39-2.1 1.25-97.52-162.8h2.85z" class="cls-133"/><path d="m533.36 661.64-2.09 1.26-98.28-164.06h2.85z" class="cls-108"/><path d="m531.27 662.9-2.1 1.26-99.03-165.32h2.85z" class="cls-75"/><path d="m529.17 664.16-2.1 1.26-99.79-166.58h2.86z" class="cls-152"/><path d="m527.07 665.42-2.1 1.25-100.54-167.83h2.85z" class="cls-146"/><path d="m524.97 666.67-.05.03h-2.79L421.77 499.16l.54-.32h2.12z" class="cls-174"/><path d="m519.28 666.7-99.61-166.28 2.1-1.26L522.13 666.7z" class="cls-62"/><path d="m516.42 666.7-98.85-165.03 2.1-1.25 99.61 166.28z" class="cls-53"/><path d="m513.57 666.7-98.1-163.77 2.1-1.26 98.85 165.03z" class="cls-91"/><path d="m510.72 666.7-97.35-162.51 2.1-1.26 98.1 163.77z" class="cls-85"/><path d="m507.86 666.7-96.59-161.25 2.1-1.26 97.35 162.51z" class="cls-56"/><path d="m505.01 666.7-95.84-159.99 2.1-1.26 96.59 161.25z" class="cls-31"/><path d="m502.16 666.7-95.09-158.74 2.1-1.25 95.84 159.99z" class="cls-1"/><path d="m499.31 666.7-94.33-157.48 2.09-1.26 95.09 158.74z" class="cls-134"/><path d="m496.45 666.7-93.57-156.22 2.1-1.26 94.33 157.48z" class="cls-140"/><path d="m493.6 666.7-92.82-154.96 2.1-1.26 93.57 156.22z" class="cls-36"/><path d="m490.75 666.7-92.07-153.71 2.1-1.25L493.6 666.7z" class="cls-59"/><path d="m487.9 666.7-91.32-152.45 2.1-1.26 92.07 153.71z" class="cls-95"/><path d="m485.04 666.7-90.56-151.19 2.1-1.26L487.9 666.7z" class="cls-66"/><path d="m482.19 666.7-89.81-149.93 2.1-1.26 90.56 151.19z" class="cls-107"/><path d="m479.34 666.7-89.06-148.68 2.1-1.25 89.81 149.93z" class="cls-99"/><path d="m476.48 666.7-88.3-147.42 2.1-1.26 89.06 148.68z" class="cls-110"/><path d="m473.63 666.7-87.55-146.16 2.1-1.26 88.3 147.42z" class="cls-154"/><path d="m470.78 666.7-86.8-144.9 2.1-1.26 87.55 146.16z" class="cls-157"/><path d="m467.93 666.7-86.05-143.65 2.1-1.25 86.8 144.9z" class="cls-39"/><path d="m465.07 666.7-85.29-142.39 2.1-1.26 86.05 143.65z" class="cls-147"/><path d="m462.22 666.7-84.54-141.13 2.1-1.26 85.29 142.39z" class="cls-57"/><path d="m459.37 666.7-83.79-139.87 2.1-1.26 84.54 141.13z" class="cls-160"/><path d="m456.51 666.7-83.03-138.62 2.1-1.25 83.79 139.87z" class="cls-80"/><path d="m453.66 666.7-80.64-134.62v-3.72l.46-.28 83.03 138.62z" class="cls-169"/><path d="m450.81 666.7-77.79-129.86v-4.76l80.64 134.62z" class="cls-6"/><path d="m447.96 666.7-74.94-125.09v-4.77l77.79 129.86z" class="cls-132"/><path d="m445.1 666.7-72.08-120.33v-4.76l74.94 125.09z" class="cls-130"/><path d="m442.25 666.7-69.23-115.57v-4.76L445.1 666.7z" class="cls-68"/><path d="m439.4 666.7-66.38-110.81v-4.76l69.23 115.57z" class="cls-117"/><path d="m436.54 666.7-63.52-106.04v-4.77L439.4 666.7z" class="cls-11"/><path d="m433.69 666.7-60.67-101.28v-4.76l63.52 106.04z" class="cls-171"/><path d="m430.84 666.7-57.82-96.52v-4.76l60.67 101.28z" class="cls-3"/><path d="m427.99 666.7-54.97-91.76v-4.76l57.82 96.52z" class="cls-4"/><path d="m425.13 666.7-52.11-86.99v-4.77l54.97 91.76z" class="cls-55"/><path d="m422.28 666.7-49.26-82.23v-4.76l52.11 86.99z" class="cls-118"/><path d="m419.43 666.7-46.41-77.47v-4.76l49.26 82.23z" class="cls-49"/><path d="m416.57 666.7-43.55-72.71v-4.76l46.41 77.47z" class="cls-48"/><path d="m413.72 666.7-40.7-67.94v-4.77l43.55 72.71z" class="cls-126"/><path d="m410.87 666.7-37.85-63.18v-4.76l40.7 67.94z" class="cls-168"/><path d="m408.02 666.7-35-58.42v-4.76l37.85 63.18z" class="cls-165"/><path d="m405.16 666.7-32.14-53.66v-4.76l35 58.42z" class="cls-114"/><path d="m402.31 666.7-29.29-48.89v-4.77l32.14 53.66z" class="cls-38"/><path d="m399.46 666.7-26.44-44.13v-4.76l29.29 48.89z" class="cls-104"/><path d="m396.61 666.7-23.59-39.37v-4.76l26.44 44.13z" class="cls-82"/><path d="m393.75 666.7-20.73-34.61v-4.76l23.59 39.37z" class="cls-182"/><path d="m390.9 666.7-17.88-29.84v-4.77l20.73 34.61z" class="cls-63"/><path d="m388.05 666.7-15.03-25.08v-4.76l17.88 29.84z" class="cls-13"/><path d="m385.19 666.7-12.17-20.32v-4.76l15.03 25.08z" class="cls-9"/><path d="m382.34 666.7-9.32-15.56v-4.76l12.17 20.32z" class="cls-131"/><path d="m379.49 666.7-6.47-10.79v-4.77l9.32 15.56z" class="cls-29"/><path d="m376.64 666.7-3.62-6.03v-4.76l6.47 10.79z" class="cls-90"/><path d="m373.78 666.7-.76-1.27v-4.76l3.62 6.03z" class="cls-19"/><path d="m373.02 665.43.76 1.27h-.76z" class="cls-47"/></g><g style="clip-path:url(#clippath-2)"><path d="m643.23 656.88 4.5-.37v.37z" class="cls-152"/><path d="m627.16 656.88 20.57-1.71v1.34l-4.5.37z" class="cls-146"/><path d="m611.08 656.88 36.65-3.05v1.34l-20.57 1.71z" class="cls-174"/><path d="m595.01 656.88 52.72-4.39v1.34l-36.65 3.05z" class="cls-62"/><path d="m578.93 656.88 68.8-5.73v1.34l-52.72 4.39z" class="cls-53"/><path d="m562.86 656.88 84.87-7.07v1.34l-68.8 5.73z" class="cls-91"/><path d="m550.61 656.56 97.12-8.09v1.34l-84.87 7.07h-12.25z" class="cls-85"/><path d="m550.61 655.22 97.12-8.09v1.34l-97.12 8.09z" class="cls-56"/><path d="m550.61 653.88 97.12-8.09v1.34l-97.12 8.09z" class="cls-31"/><path d="m550.61 652.54 97.12-8.09v1.34l-97.12 8.09z" class="cls-1"/><path d="m550.61 651.2 97.12-8.09v1.34l-97.12 8.09z" class="cls-134"/><path d="m550.61 649.86 97.12-8.09v1.34l-97.12 8.09z" class="cls-140"/><path d="m550.61 648.52 97.12-8.09v1.34l-97.12 8.09z" class="cls-36"/><path d="m550.61 647.19 97.12-8.1v1.34l-97.12 8.09z" class="cls-59"/><path d="m550.61 645.85 97.12-8.1v1.34l-97.12 8.1z" class="cls-95"/><path d="m550.61 644.51 97.12-8.1v1.34l-97.12 8.1z" class="cls-66"/><path d="m550.61 643.17 97.12-8.1v1.34l-97.12 8.1z" class="cls-107"/><path d="m550.61 641.83 97.12-8.1v1.34l-97.12 8.1z" class="cls-99"/><path d="m550.61 640.49 97.12-8.1v1.34l-97.12 8.1z" class="cls-110"/><path d="m550.61 639.15 97.12-8.1v1.34l-97.12 8.1z" class="cls-154"/><path d="m550.61 637.81 97.12-8.1v1.34l-97.12 8.1z" class="cls-157"/><path d="m550.61 636.47 97.12-8.09v1.33l-97.12 8.1z" class="cls-39"/><path d="m550.61 635.13 97.12-8.09v1.34l-97.12 8.09z" class="cls-147"/><path d="m550.61 633.79 97.12-8.09v1.34l-97.12 8.09z" class="cls-57"/><path d="m550.61 632.45 97.12-8.09v1.34l-97.12 8.09z" class="cls-160"/><path d="m550.61 631.11 97.12-8.09v1.34l-97.12 8.09z" class="cls-80"/><path d="m550.61 629.77 97.12-8.09v1.34l-97.12 8.09z" class="cls-169"/><path d="m550.61 628.43 97.12-8.09v1.34l-97.12 8.09z" class="cls-6"/><path d="m550.61 627.09 97.12-8.09v1.34l-97.12 8.09z" class="cls-132"/><path d="m550.61 625.75 97.12-8.09V619l-97.12 8.09z" class="cls-130"/><path d="m550.61 624.41 97.12-8.09v1.34l-97.12 8.09z" class="cls-68"/><path d="m550.61 623.07 97.12-8.09v1.34l-97.12 8.09z" class="cls-117"/><path d="m550.61 621.73 97.12-8.09v1.34l-97.12 8.09z" class="cls-11"/><path d="m550.61 620.39 97.12-8.09v1.34l-97.12 8.09z" class="cls-171"/><path d="m550.61 619.05 97.12-8.09v1.34l-97.12 8.09z" class="cls-3"/><path d="m550.61 617.71 97.12-8.09v1.34l-97.12 8.09z" class="cls-4"/><path d="m550.61 616.37 97.12-8.09v1.34l-97.12 8.09z" class="cls-55"/><path d="m550.61 615.03 97.12-8.09v1.34l-97.12 8.09z" class="cls-118"/><path d="m550.61 613.7 97.12-8.1v1.34l-97.12 8.09z" class="cls-49"/><path d="m550.61 612.36 97.12-8.1v1.34l-97.12 8.1z" class="cls-48"/><path d="m550.61 611.02 97.12-8.1v1.34l-97.12 8.1z" class="cls-126"/><path d="m550.61 609.68 97.12-8.1v1.34l-97.12 8.1z" class="cls-168"/><path d="m550.61 608.34 97.12-8.1v1.34l-97.12 8.1z" class="cls-165"/><path d="m550.61 607 97.12-8.1v1.34l-97.12 8.1z" class="cls-114"/><path d="m550.61 605.66 97.12-8.1v1.34l-97.12 8.1z" class="cls-38"/><path d="m550.61 604.32 97.12-8.1v1.34l-97.12 8.1z" class="cls-104"/><path d="m550.61 602.98 97.12-8.1v1.34l-97.12 8.1z" class="cls-82"/><path d="m550.61 601.64 97.12-8.09v1.33l-97.12 8.1z" class="cls-182"/><path d="m550.61 600.3 97.12-8.09v1.34l-97.12 8.09z" class="cls-63"/><path d="m550.61 598.96 97.12-8.09v1.34l-97.12 8.09z" class="cls-13"/><path d="m550.61 597.62 97.12-8.09v1.34l-97.12 8.09z" class="cls-9"/><path d="m550.61 596.28 97.12-8.09v1.34l-97.12 8.09z" class="cls-131"/><path d="m550.61 594.94 97.12-8.09v1.34l-97.12 8.09z" class="cls-29"/><path d="m550.61 593.6 97.12-8.09v1.34l-97.12 8.09z" class="cls-90"/><path d="m550.61 592.26 97.12-8.09v1.34l-97.12 8.09z" class="cls-19"/><path d="m550.61 590.92 97.12-8.09v1.34l-97.12 8.09z" class="cls-47"/><path d="m550.61 589.58 97.12-8.09v1.34l-97.12 8.09z" class="cls-120"/><path d="m550.61 588.24 97.12-8.09v1.34l-97.12 8.09z" class="cls-138"/><path d="m550.61 586.9 97.12-8.09v1.34l-97.12 8.09z" class="cls-190"/><path d="m550.61 585.56 97.12-8.09v1.34l-97.12 8.09z" class="cls-50"/><path d="m550.61 584.22 97.12-8.09v1.34l-97.12 8.09z" class="cls-109"/><path d="m550.61 582.88 97.12-8.09v1.34l-97.12 8.09z" class="cls-52"/><path d="m647.73 574.79-97.12 8.09v-56.42h97.12z" class="cls-52"/></g><g style="clip-path:url(#clippath-3)"><path d="m525.18 157.45-.05-.1h.05z" class="cls-20"/><path d="m525.18 162.21-2.9-4.86h2.85l.05.1z" class="cls-93"/><path d="m525.18 166.97-5.76-9.62h2.86l2.9 4.86z" class="cls-187"/><path d="m525.18 171.73-8.61-14.38h2.85l5.76 9.62z" class="cls-65"/><path d="m525.18 176.5-11.46-19.15h2.85l8.61 14.38z" class="cls-119"/><path d="m525.18 181.26-14.31-23.91h2.85l11.46 19.15z" class="cls-83"/><path d="m525.18 186.02-17.17-28.67h2.86l14.31 23.91z" class="cls-16"/><path d="m525.18 190.78-20.02-33.43h2.85l17.17 28.67z" class="cls-151"/><path d="m525.18 195.55-22.87-38.2h2.85l20.02 33.43z" class="cls-186"/><path d="m525.18 200.31-25.73-42.96h2.86l22.87 38.2z" class="cls-121"/><path d="m525.18 205.07-28.58-47.72h2.85l25.73 42.96z" class="cls-41"/><path d="m525.18 209.83-31.43-52.48h2.85l28.58 47.72z" class="cls-100"/><path d="m525.18 214.6-34.28-57.25h2.85l31.43 52.48z" class="cls-175"/><path d="m525.18 219.36-37.14-62.01h2.86l34.28 57.25z" class="cls-180"/><path d="m525.18 224.12-39.99-66.77h2.85l37.14 62.01z" class="cls-156"/><path d="m525.18 228.88-42.84-71.53h2.85l39.99 66.77z" class="cls-12"/><path d="m525.18 233.65-45.7-76.3h2.86l42.84 71.53z" class="cls-173"/><path d="m525.18 238.41-48.55-81.06h2.85l45.7 76.3z" class="cls-149"/><path d="m525.18 243.17-51.4-85.82h2.85l48.55 81.06z" class="cls-189"/><path d="m525.18 247.93-54.25-90.58h2.85l51.4 85.82z" class="cls-43"/><path d="m525.18 252.7-57.11-95.35h2.86l54.25 90.58z" class="cls-161"/><path d="m525.18 257.46-59.96-100.11h2.85l57.11 95.35z" class="cls-111"/><path d="m525.18 262.22-62.81-104.87h2.85l59.96 100.11z" class="cls-34"/><path d="m525.18 266.98-65.67-109.63h2.86l62.81 104.87z" class="cls-137"/><path d="m525.18 271.75-68.52-114.4h2.85l65.67 109.63z" class="cls-128"/><path d="m525.18 276.51-71.37-119.16h2.85l68.52 114.4z" class="cls-26"/><path d="m525.18 281.27-74.22-123.92h2.85l71.37 119.16z" class="cls-139"/><path d="M525.18 286.03 448.1 157.35h2.86l74.22 123.92z" class="cls-162"/><path d="m525.18 290.8-79.93-133.45h2.85l77.08 128.68z" class="cls-148"/><path d="M525.18 295.56 442.4 157.35h2.85l79.93 133.45z" class="cls-35"/><path d="m525.18 300.32-85.63-142.97h2.85l82.78 138.21z" class="cls-158"/><path d="m525.18 305.08-88.49-147.73h2.86l85.63 142.97z" class="cls-45"/><path d="m525.18 309.85-91.34-152.5h2.85l88.49 147.73z" class="cls-184"/><path d="m525.18 314.61-94.19-157.26h2.85l91.34 152.5z" class="cls-54"/><path d="m525.18 319.37-97.05-162.02h2.86l94.19 157.26z" class="cls-79"/><path d="m525.18 324.13-99.9-166.78h2.85l97.05 162.02z" class="cls-22"/><path d="M525.18 328.9 422.43 157.35h2.85l99.9 166.78z" class="cls-113"/><path d="m525.18 333.66-105.6-176.31h2.85L525.18 328.9z" class="cls-61"/><path d="M525.18 338.42 416.72 157.35h2.86l105.6 176.31z" class="cls-122"/><path d="M525.18 343.18 413.87 157.35h2.85l108.46 181.07z" class="cls-166"/><path d="m525.18 347.95-114.16-190.6h2.85l111.31 185.83z" class="cls-105"/><path d="M525.18 352.71 408.16 157.35h2.86l114.16 190.6z" class="cls-112"/><path d="M525.18 357.47 405.31 157.35h2.85l117.02 195.36z" class="cls-28"/><path d="M525.18 362.23 402.46 157.35h2.85l119.87 200.12z" class="cls-170"/><path d="M525.18 367 399.61 157.35h2.85l122.72 204.88z" class="cls-183"/><path d="M525.18 371.76 396.75 157.35h2.86L525.18 367z" class="cls-159"/><path d="M525.18 376.52 393.9 157.35h2.85l128.43 214.41z" class="cls-32"/><path d="M525.18 381.28 391.05 157.35h2.85l131.28 219.17z" class="cls-76"/><path d="m525.18 386.05-136.99-228.7h2.86l134.13 223.93z" class="cls-17"/><path d="M525.18 390.81 385.34 157.35h2.85l136.99 228.7z" class="cls-7"/><path d="M525.18 395.57 382.49 157.35h2.85l139.84 233.46z" class="cls-46"/><path d="M525.18 400.34 379.64 157.35h2.85l142.69 238.22z" class="cls-88"/><path d="m525.18 405.1-148.4-247.75h2.86l145.54 242.99z" class="cls-106"/><path d="M525.18 409.86 373.93 157.35h2.85l148.4 247.75z" class="cls-67"/><path d="m525.18 414.62-154.1-257.27h2.85l151.25 252.51z" class="cls-74"/><path d="M525.18 419.39 368.22 157.35h2.86l154.1 257.27z" class="cls-2"/><path d="m525.18 424.15-159.81-266.8h2.85l156.96 262.04z" class="cls-77"/><path d="M525.18 428.91 362.52 157.35h2.85l159.81 266.8z" class="cls-172"/><path d="M525.18 433.67 359.67 157.35h2.85l162.66 271.56z" class="cls-185"/><path d="M525.18 438.44 356.81 157.35h2.86l165.51 276.32z" class="cls-142"/><path d="M525.18 443.2 353.96 157.35h2.85l168.37 281.09z" class="cls-71"/><path d="M525.18 447.96 351.11 157.35h2.85L525.18 443.2z" class="cls-64"/><path d="M525.18 452.72 348.26 157.35h2.85l174.07 290.61z" class="cls-21"/><path d="M525.18 457.49 345.4 157.35h2.86l176.92 295.37z" class="cls-58"/><path d="m525.18 462.25-182.63-304.9h2.85l179.78 300.14z" class="cls-44"/><path d="M525.18 467.01 339.7 157.35h2.85l182.63 304.9z" class="cls-144"/><path d="M525.18 471.77 336.84 157.35h2.86l185.48 309.66z" class="cls-188"/><path d="M525.18 476.54 333.99 157.35h2.85l188.34 314.42z" class="cls-98"/><path d="M525.18 481.3 331.14 157.35h2.85l191.19 319.19z" class="cls-181"/><path d="M525.18 486.06 328.29 157.35h2.85L525.18 481.3z" class="cls-10"/><path d="M525.18 490.82 325.43 157.35h2.86l196.89 328.71z" class="cls-78"/><path d="m525.18 495.59-202.6-338.24h2.85l199.75 333.47z" class="cls-97"/><path d="m525.18 500.35-205.45-343h2.85l202.6 338.24z" class="cls-37"/><path d="m525.18 503.17-.85.51-207.46-346.33h2.86l205.45 343z" class="cls-127"/><path d="m524.33 503.68-2.1 1.26-208.21-347.59h2.85z" class="cls-69"/><path d="m522.23 504.94-2.1 1.26-208.96-348.85h2.85z" class="cls-23"/><path d="m520.13 506.2-2.1 1.26-209.71-350.11h2.85z" class="cls-87"/><path d="m518.03 507.46-2.1 1.26-210.47-351.37h2.86z" class="cls-145"/><path d="m515.93 508.72-2.1 1.25-210.73-351.8 1.37-.82h.99z" class="cls-101"/><path d="m301 159.446 2.101-1.258 210.72 351.81-2.1 1.259z" class="cls-155"/><path d="m298.9 160.698 2.102-1.259 210.72 351.81-2.101 1.26z" class="cls-150"/><path d="m296.796 161.958 2.102-1.259 210.72 351.81-2.101 1.26z" class="cls-153"/><path d="m294.702 163.218 2.101-1.259 210.721 351.81-2.101 1.26z" class="cls-27"/><path d="m292.616 164.473 2.102-1.26 210.72 351.811-2.101 1.26z" class="cls-102"/><path d="m290.507 165.724 2.102-1.259 210.72 351.81-2.101 1.26z" class="cls-40"/><path d="m288.413 166.984 2.102-1.259 210.72 351.81-2.101 1.26z" class="cls-124"/><path d="m286.309 168.244 2.101-1.259 210.721 351.81-2.101 1.26z" class="cls-8"/><path d="m284.214 169.504 2.102-1.259 210.721 351.81-2.102 1.26z" class="cls-73"/><path d="m282.105 170.756 2.102-1.26 210.721 351.811-2.102 1.259z" class="cls-116"/><path d="m280.011 172.016 2.102-1.26 210.72 351.811-2.101 1.259z" class="cls-14"/><path d="m277.907 173.276 2.102-1.26 210.72 351.811-2.101 1.259z" class="cls-92"/><path d="m275.813 174.536 2.102-1.26 210.72 351.811-2.101 1.259z" class="cls-18"/><path d="m273.709 175.796 2.102-1.26 210.72 351.811-2.101 1.259z" class="cls-191"/><path d="m271.61 177.047 2.101-1.259 210.721 351.81-2.102 1.26z" class="cls-123"/><path d="m269.505 178.307 2.102-1.259 210.721 351.81-2.102 1.26z" class="cls-141"/><path d="m267.411 179.567 2.102-1.259 210.721 351.81-2.102 1.26z" class="cls-86"/><path d="m265.307 180.827 2.102-1.259 210.72 351.81-2.1 1.26z" class="cls-33"/><path d="m263.208 182.078 2.102-1.258 210.72 351.81-2.101 1.259z" class="cls-5"/><path d="m261.114 183.338 2.102-1.258 210.72 351.81-2.101 1.259z" class="cls-179"/><path d="m259.01 184.598 2.101-1.258 210.721 351.81-2.101 1.259z" class="cls-60"/><path d="m256.915 185.858 2.102-1.258 210.721 351.81-2.102 1.259z" class="cls-30"/><path d="m254.806 187.11 2.102-1.259 210.721 351.81-2.102 1.26z" class="cls-89"/><path d="m252.712 188.37 2.102-1.259 210.72 351.81-2.1 1.26z" class="cls-81"/><path d="m250.617 189.625 2.101-1.26L463.44 540.177l-2.101 1.26z" class="cls-133"/><path d="m248.522 190.885 2.102-1.26 210.721 351.811-2.102 1.26z" class="cls-108"/><path d="m246.413 192.136 2.102-1.259 210.721 351.81-2.102 1.26z" class="cls-75"/><path d="m244.32 193.396 2.1-1.259 210.722 351.81-2.102 1.26z" class="cls-152"/><path d="m242.215 194.656 2.102-1.259 210.72 351.81-2.101 1.26z" class="cls-146"/><path d="m240.12 195.916 2.103-1.259 210.72 351.81-2.101 1.26z" class="cls-174"/><path d="m238.012 197.168 2.101-1.26L450.834 547.72l-2.101 1.259z" class="cls-62"/><path d="m235.917 198.428 2.102-1.26L448.74 548.98l-2.102 1.259z" class="cls-53"/><path d="m233.823 199.688 2.102-1.26L446.646 550.24l-2.102 1.259z" class="cls-91"/><path d="m231.72 200.948 2.101-1.26L444.542 551.5l-2.102 1.259z" class="cls-85"/><path d="m229.625 202.208 2.102-1.26 210.72 351.811-2.101 1.259z" class="cls-56"/><path d="m227.516 203.459 2.102-1.259 210.72 351.81-2.101 1.26z" class="cls-31"/><path d="m225.422 204.719 2.102-1.259 210.72 351.81-2.101 1.26z" class="cls-1"/><path d="m223.318 205.979 2.101-1.259L436.14 556.53l-2.101 1.26z" class="cls-134"/><path d="m221.223 207.239 2.102-1.259 210.721 351.81-2.102 1.26z" class="cls-140"/><path d="m219.114 208.49 2.102-1.258 210.721 351.81-2.102 1.259z" class="cls-36"/><path d="m217.02 209.75 2.102-1.258 210.72 351.81-2.101 1.259z" class="cls-59"/><path d="m214.916 211.01 2.102-1.258 210.72 351.81-2.101 1.259z" class="cls-95"/><path d="m212.822 212.27 2.102-1.258 210.72 351.81-2.101 1.259z" class="cls-66"/><path d="m210.713 213.522 2.101-1.259 210.721 351.81-2.101 1.26z" class="cls-107"/><path d="m208.627 214.777 2.102-1.26 210.72 351.811-2.101 1.26z" class="cls-99"/><path d="m206.523 216.037 2.102-1.26 210.72 351.811-2.101 1.26z" class="cls-110"/><path d="m204.429 217.297 2.102-1.26 210.72 351.811-2.101 1.26z" class="cls-154"/><path d="m202.33 218.548 2.101-1.259L415.152 569.1l-2.101 1.26z" class="cls-157"/><path d="m200.225 219.808 2.102-1.259 210.721 351.81-2.102 1.26z" class="cls-39"/><path d="m410.96 571.6-2.1 1.25-209.47-349.69v-2.86l.83-.51z" class="cls-147"/><path d="m408.86 572.85-2.1 1.26-207.37-346.19v-4.76z" class="cls-57"/><path d="m406.76 574.11-2.1 1.26-205.27-342.69v-4.76z" class="cls-160"/><path d="m404.66 575.37-2.1 1.26-203.17-339.18v-4.77z" class="cls-80"/><path d="m402.56 576.63-2.1 1.25-201.07-335.67v-4.76z" class="cls-169"/><path d="m400.46 577.88-2.1 1.26-198.97-332.17v-4.76z" class="cls-6"/><path d="m398.36 579.14-2.1 1.26-196.87-328.67v-4.76z" class="cls-132"/><path d="m396.26 580.4-2.1 1.26L199.39 256.5v-4.77z" class="cls-130"/><path d="m394.16 581.66-2.1 1.25-192.67-321.65v-4.76z" class="cls-68"/><path d="m392.06 582.91-2.1 1.26-190.57-318.15v-4.76z" class="cls-117"/><path d="m389.96 584.17-2.1 1.26-188.47-314.64v-4.77z" class="cls-11"/><path d="m387.86 585.43-2.1 1.26-186.37-311.14v-4.76z" class="cls-171"/><path d="m385.76 586.69-2.1 1.26-184.27-307.64v-4.76z" class="cls-3"/><path d="m383.66 587.95-2.1 1.25-182.17-304.13v-4.76z" class="cls-4"/><path d="m381.56 589.2-2.09 1.26-180.08-300.62v-4.77z" class="cls-55"/><path d="m379.47 590.46-2.1 1.26L199.39 294.6v-4.76z" class="cls-118"/><path d="m377.37 591.72-2.1 1.26-175.88-293.62v-4.76z" class="cls-49"/><path d="m375.27 592.98-2.1 1.25-173.78-290.11v-4.76z" class="cls-48"/><path d="m373.17 594.23-2.1 1.26-171.68-286.6v-4.77z" class="cls-126"/><path d="m371.07 595.49-2.1 1.26-169.58-283.1v-4.76z" class="cls-168"/><path d="m368.97 596.75-2.1 1.26-167.48-279.6v-4.76z" class="cls-165"/><path d="m366.87 598.01-2.1 1.25-165.38-276.09v-4.76z" class="cls-114"/><path d="m364.77 599.26-2.1 1.26-163.28-272.58v-4.77z" class="cls-38"/><path d="m362.67 600.52-2.1 1.26L199.39 332.7v-4.76z" class="cls-104"/><path d="m360.57 601.78-2.1 1.26-159.08-265.58v-4.76z" class="cls-82"/><path d="m358.47 603.04-2.1 1.25-156.98-262.07v-4.76z" class="cls-182"/><path d="m356.37 604.29-2.1 1.26-154.88-258.56v-4.77z" class="cls-63"/><path d="m354.27 605.55-2.1 1.26-152.78-255.06v-4.76z" class="cls-13"/><path d="m352.17 606.81-2.1 1.26-150.68-251.56v-4.76z" class="cls-9"/><path d="m350.07 608.07-2.1 1.25-148.58-248.05v-4.76z" class="cls-131"/><path d="m347.97 609.32-2.1 1.26-146.48-244.54v-4.77z" class="cls-29"/><path d="m345.87 610.58-2.1 1.26L199.39 370.8v-4.76z" class="cls-90"/><path d="m343.77 611.84-2.1 1.26-142.28-237.54v-4.76z" class="cls-19"/><path d="m341.67 613.1-2.09 1.26-140.19-234.04v-4.76z" class="cls-47"/><path d="m339.58 614.36-2.1 1.25-138.09-230.52v-4.77z" class="cls-120"/><path d="m337.48 615.61-2.1 1.26-135.99-227.02v-4.76z" class="cls-138"/><path d="m335.38 616.87-2.1 1.26-133.89-223.52v-4.76z" class="cls-190"/><path d="m333.28 618.13-2.1 1.26-131.79-220.02v-4.76z" class="cls-50"/><path d="m331.18 619.39-2.1 1.25-129.69-216.5v-4.77z" class="cls-109"/><path d="m329.08 620.64-2.1 1.26-127.59-213v-4.76z" class="cls-52"/><path d="m326.98 621.9-3 1.8H199.39V408.9z" class="cls-52"/></g><g style="clip-path:url(#clippath-4)"><path d="M366.2 331.77h.69v126.65h-.69z" class="cls-135"/><path d="M366.89 331.77h.69v126.65h-.69z" class="cls-143"/><path d="M367.58 331.77h.69v126.65h-.69z" class="cls-103"/><path d="M368.27 331.77h.69v126.65h-.69z" class="cls-129"/><path d="M368.97 331.77h.69v126.65h-.69z" class="cls-136"/><path d="M369.66 331.77h.69v126.65h-.69z" class="cls-42"/><path d="M370.35 331.77h.69v126.65h-.69z" class="cls-25"/><path d="M371.04 331.77h.69v126.65h-.69z" class="cls-167"/><path d="M371.73 331.77h.69v126.65h-.69z" class="cls-125"/><path d="M372.43 331.77h.69v126.65h-.69z" class="cls-177"/><path d="M373.12 331.77h.69v126.65h-.69z" class="cls-94"/><path d="M373.81 331.77h.69v126.65h-.69z" class="cls-163"/><path d="M374.5 331.77h.69v126.65h-.69z" class="cls-51"/><path d="M375.19 331.77h.69v126.65h-.69z" class="cls-70"/><path d="M375.89 331.77h.69v126.65h-.69z" class="cls-176"/><path d="M376.58 331.77h.69v126.65h-.69z" class="cls-20"/><path d="M377.27 331.77h.69v126.65h-.69z" class="cls-93"/><path d="M377.96 331.77h.69v126.65h-.69z" class="cls-187"/><path d="M378.66 331.77h.69v126.65h-.69z" class="cls-65"/><path d="M379.35 331.77h.69v126.65h-.69z" class="cls-119"/><path d="M380.04 331.77h.69v126.65h-.69z" class="cls-83"/><path d="M380.73 331.77h.69v126.65h-.69z" class="cls-16"/><path d="M381.42 331.77h.69v126.65h-.69z" class="cls-151"/><path d="M382.12 331.77h.69v126.65h-.69z" class="cls-186"/><path d="M382.81 331.77h.69v126.65h-.69z" class="cls-121"/><path d="M383.5 331.77h.69v126.65h-.69z" class="cls-41"/><path d="M384.19 331.77h.69v126.65h-.69z" class="cls-100"/><path d="M384.88 331.77h.69v126.65h-.69z" class="cls-175"/><path d="M385.58 331.77h.69v126.65h-.69z" class="cls-180"/><path d="M386.27 331.77h.69v126.65h-.69z" class="cls-156"/><path d="M386.96 331.77h.69v126.65h-.69z" class="cls-12"/><path d="M387.65 331.77h.69v126.65h-.69z" class="cls-173"/><path d="M388.34 331.77h.69v126.65h-.69z" class="cls-149"/><path d="M389.04 331.77h.69v126.65h-.69z" class="cls-189"/><path d="M389.73 331.77h.69v126.65h-.69z" class="cls-43"/><path d="M390.42 331.77h.69v126.65h-.69z" class="cls-161"/><path d="M391.11 331.77h.69v126.65h-.69z" class="cls-111"/><path d="M391.8 331.77h.69v126.65h-.69z" class="cls-34"/><path d="M392.5 331.77h.69v126.65h-.69z" class="cls-137"/><path d="M393.19 331.77h.69v126.65h-.69z" class="cls-128"/><path d="M393.88 331.77h.69v126.65h-.69z" class="cls-26"/><path d="M394.57 331.77h.69v126.65h-.69z" class="cls-139"/><path d="M395.26 331.77h.69v126.65h-.69z" class="cls-162"/><path d="M395.96 331.77h.69v126.65h-.69z" class="cls-148"/><path d="M396.65 331.77h.69v126.65h-.69z" class="cls-35"/><path d="M397.34 331.77h.69v126.65h-.69z" class="cls-158"/><path d="M398.03 331.77h.69v126.65h-.69z" class="cls-45"/><path d="M398.72 331.77h.69v126.65h-.69z" class="cls-184"/><path d="M399.42 331.77h.69v126.65h-.69z" class="cls-54"/><path d="M400.11 331.77h.69v126.65h-.69z" class="cls-79"/><path d="M400.8 331.77h.69v126.65h-.69z" class="cls-22"/><path d="M401.49 331.77h.69v126.65h-.69z" class="cls-113"/><path d="M402.18 331.77h.69v126.65h-.69z" class="cls-61"/><path d="M402.88 331.77h.69v126.65h-.69z" class="cls-122"/><path d="M403.57 331.77h.69v126.65h-.69z" class="cls-166"/><path d="M404.26 331.77h.69v126.65h-.69z" class="cls-105"/><path d="M404.95 331.77h.69v126.65h-.69z" class="cls-112"/><path d="M405.65 331.77h.69v126.65h-.69z" class="cls-28"/><path d="M406.34 331.77h.69v126.65h-.69z" class="cls-170"/><path d="M407.03 331.77h.69v126.65h-.69z" class="cls-183"/><path d="M407.72 331.77h.69v126.65h-.69z" class="cls-159"/><path d="M408.41 331.77h.69v126.65h-.69z" class="cls-32"/><path d="M409.11 331.77h.69v126.65h-.69z" class="cls-76"/><path d="M409.8 331.77h.69v126.65h-.69z" class="cls-17"/><path d="M410.49 331.77h.69v126.65h-.69z" class="cls-7"/><path d="M411.18 331.77h.69v126.65h-.69z" class="cls-46"/><path d="M411.87 331.77h.69v126.65h-.69z" class="cls-88"/><path d="M412.57 331.77h.69v126.65h-.69z" class="cls-106"/><path d="M413.26 331.77h.69v126.65h-.69z" class="cls-67"/><path d="M413.95 331.77h.69v126.65h-.69z" class="cls-74"/><path d="M414.64 331.77h.69v126.65h-.69z" class="cls-2"/><path d="M415.33 331.77h.69v126.65h-.69z" class="cls-77"/><path d="M416.03 331.77h.69v126.65h-.69z" class="cls-172"/><path d="M416.72 331.77h.69v126.65h-.69z" class="cls-185"/><path d="M417.41 331.77h.69v126.65h-.69z" class="cls-142"/><path d="M418.1 331.77h.69v126.65h-.69z" class="cls-71"/><path d="M418.79 331.77h.69v126.65h-.69z" class="cls-64"/><path d="M419.49 331.77h.69v126.65h-.69z" class="cls-21"/><path d="M420.18 331.77h.69v126.65h-.69z" class="cls-58"/><path d="M420.87 331.77h.69v126.65h-.69z" class="cls-44"/><path d="M421.56 331.77h.69v126.65h-.69z" class="cls-144"/><path d="M422.25 331.77h.69v126.65h-.69z" class="cls-188"/><path d="M422.95 331.77h.69v126.65h-.69z" class="cls-98"/><path d="M423.64 331.77h.69v126.65h-.69z" class="cls-181"/><path d="M424.33 331.77h.69v126.65h-.69z" class="cls-10"/><path d="M425.02 331.77h.69v126.65h-.69z" class="cls-78"/><path d="M425.71 331.77h.69v126.65h-.69z" class="cls-97"/><path d="M426.41 331.77h.69v126.65h-.69z" class="cls-37"/><path d="M427.1 331.77h.69v126.65h-.69z" class="cls-127"/><path d="M427.79 331.77h.69v126.65h-.69z" class="cls-69"/><path d="M428.48 331.77h.69v126.65h-.69z" class="cls-23"/><path d="M429.17 331.77h.69v126.65h-.69z" class="cls-87"/><path d="M429.87 331.77h.69v126.65h-.69z" class="cls-145"/><path d="M430.56 331.77h.69v126.65h-.69z" class="cls-101"/><path d="M431.25 331.77h.69v126.65h-.69z" class="cls-155"/><path d="M431.94 331.77h.69v126.65h-.69z" class="cls-150"/><path d="M432.63 331.77h.69v126.65h-.69z" class="cls-153"/><path d="M433.33 331.77h.69v126.65h-.69z" class="cls-27"/><path d="M434.02 331.77h.69v126.65h-.69z" class="cls-102"/><path d="M434.71 331.77h.69v126.65h-.69z" class="cls-40"/><path d="M435.4 331.77h.69v126.65h-.69z" class="cls-124"/><path d="M436.1 331.77h.69v126.65h-.69z" class="cls-8"/><path d="M436.79 331.77h.69v126.65h-.69z" class="cls-73"/><path d="M437.48 331.77h.69v126.65h-.69z" class="cls-116"/><path d="M438.17 331.77h.69v126.65h-.69z" class="cls-14"/><path d="M438.86 331.77h.69v126.65h-.69z" class="cls-92"/><path d="M439.56 331.77h.69v126.65h-.69z" class="cls-18"/><path d="M440.25 331.77h.69v126.65h-.69z" class="cls-191"/><path d="M440.94 331.77h.69v126.65h-.69z" class="cls-123"/><path d="M441.63 331.77h.69v126.65h-.69z" class="cls-141"/><path d="M442.32 331.77h.69v126.65h-.69z" class="cls-86"/><path d="M443.02 331.77h.69v126.65h-.69z" class="cls-33"/><path d="M443.71 331.77h.69v126.65h-.69z" class="cls-5"/><path d="M444.4 331.77h.69v126.65h-.69z" class="cls-179"/><path d="M445.09 331.77h.69v126.65h-.69z" class="cls-60"/><path d="M445.78 331.77h.69v126.65h-.69z" class="cls-30"/><path d="M446.48 331.77h.69v126.65h-.69z" class="cls-89"/><path d="M447.17 331.77h.69v126.65h-.69z" class="cls-81"/><path d="M447.86 331.77h.69v126.65h-.69z" class="cls-133"/><path d="M448.55 331.77h.69v126.65h-.69z" class="cls-108"/><path d="M449.24 331.77h.69v126.65h-.69z" class="cls-75"/><path d="M449.94 331.77h.69v126.65h-.69z" class="cls-152"/><path d="M450.63 331.77h.69v126.65h-.69z" class="cls-146"/><path d="M451.32 331.77h.69v126.65h-.69z" class="cls-174"/><path d="M452.01 331.77h.69v126.65h-.69z" class="cls-62"/><path d="M452.7 331.77h.69v126.65h-.69z" class="cls-53"/><path d="M453.4 331.77h.69v126.65h-.69z" class="cls-91"/><path d="M454.09 331.77h.69v126.65h-.69z" class="cls-85"/><path d="M454.78 331.77h.69v126.65h-.69z" class="cls-56"/><path d="M455.47 331.77h.69v126.65h-.69z" class="cls-31"/><path d="M456.16 331.77h.69v126.65h-.69z" class="cls-1"/><path d="M456.86 331.77h.69v126.65h-.69z" class="cls-134"/><path d="M457.55 331.77h.69v126.65h-.69z" class="cls-140"/><path d="M458.24 331.77h.69v126.65h-.69z" class="cls-36"/><path d="M458.93 331.77h.69v126.65h-.69z" class="cls-59"/><path d="M459.62 331.77h.69v126.65h-.69z" class="cls-95"/><path d="M460.32 331.77h.69v126.65h-.69z" class="cls-66"/><path d="M461.01 331.77h.69v126.65h-.69z" class="cls-107"/><path d="M461.7 331.77h.69v126.65h-.69z" class="cls-99"/><path d="M462.39 331.77h.69v126.65h-.69z" class="cls-110"/><path d="M463.09 331.77h.69v126.65h-.69z" class="cls-154"/><path d="M463.78 331.77h.69v126.65h-.69z" class="cls-157"/><path d="M464.47 331.77h.69v126.65h-.69z" class="cls-39"/><path d="M465.16 331.77h.69v126.65h-.69z" class="cls-147"/><path d="M465.85 331.77h.69v126.65h-.69z" class="cls-57"/><path d="M466.55 331.77h.69v126.65h-.69z" class="cls-160"/><path d="M467.24 331.77h.69v126.65h-.69z" class="cls-80"/><path d="M467.93 331.77h.69v126.65h-.69z" class="cls-169"/><path d="M468.62 331.77h.69v126.65h-.69z" class="cls-6"/><path d="M469.31 331.77h.69v126.65h-.69z" class="cls-132"/><path d="M470.01 331.77h.69v126.65h-.69z" class="cls-130"/><path d="M470.7 331.77h.69v126.65h-.69z" class="cls-68"/><path d="M471.39 331.77h.69v126.65h-.69z" class="cls-117"/><path d="M472.08 331.77h.69v126.65h-.69z" class="cls-11"/><path d="M472.77 331.77h.69v126.65h-.69z" class="cls-171"/><path d="M473.47 331.77h.69v126.65h-.69z" class="cls-3"/><path d="M474.16 331.77h.69v126.65h-.69z" class="cls-4"/><path d="M474.85 331.77h.69v126.65h-.69z" class="cls-55"/><path d="M475.54 331.77h.69v126.65h-.69z" class="cls-118"/><path d="M476.23 331.77h.69v126.65h-.69z" class="cls-49"/><path d="M476.93 331.77h.69v126.65h-.69z" class="cls-48"/><path d="M477.62 331.77h.69v126.65h-.69z" class="cls-126"/><path d="M478.31 331.77h.69v126.65h-.69z" class="cls-168"/><path d="M479 331.77h.69v126.65H479z" class="cls-165"/><path d="M479.69 331.77h.69v126.65h-.69z" class="cls-114"/><path d="M480.39 331.77h.69v126.65h-.69z" class="cls-38"/><path d="M481.08 331.77h.69v126.65h-.69z" class="cls-104"/><path d="M481.77 331.77h.69v126.65h-.69z" class="cls-82"/><path d="M482.46 331.77h.69v126.65h-.69z" class="cls-182"/><path d="M483.15 331.77h.69v126.65h-.69z" class="cls-63"/><path d="M483.85 331.77h.69v126.65h-.69z" class="cls-13"/><path d="M484.54 331.77h.69v126.65h-.69z" class="cls-9"/><path d="M485.23 331.77h.69v126.65h-.69z" class="cls-131"/><path d="M485.92 331.77h.69v126.65h-.69z" class="cls-29"/><path d="M486.61 331.77h.69v126.65h-.69z" class="cls-90"/><path d="M487.31 331.77h.69v126.65h-.69z" class="cls-19"/><path d="M488 331.77h.69v126.65H488z" class="cls-47"/><path d="M488.69 331.77h.69v126.65h-.69z" class="cls-120"/><path d="M489.38 331.77h.69v126.65h-.69z" class="cls-138"/><path d="M490.08 331.77h.69v126.65h-.69z" class="cls-190"/><path d="M490.77 331.77h.69v126.65h-.69z" class="cls-50"/><path d="M491.46 331.77h.69v126.65h-.69z" class="cls-109"/><path d="M492.15 331.77h.69v126.65h-.69z" class="cls-52"/></g><g style="clip-path:url(#clippath-5)"><path d="m647.73 480.94-1.11-1.46h1.11z" class="cls-20"/><path d="m647.73 483.1-2.75-3.62h1.64l1.11 1.46z" class="cls-93"/><path d="m647.73 485.26-4.39-5.78h1.64l2.75 3.62z" class="cls-187"/><path d="m647.73 487.41-6.03-7.93h1.64l4.39 5.78z" class="cls-65"/><path d="m647.73 489.57-7.67-10.09h1.64l6.03 7.93z" class="cls-119"/><path d="m647.73 491.73-9.31-12.25h1.64l7.67 10.09z" class="cls-83"/><path d="m647.73 493.89-10.94-14.41h1.63l9.31 12.25z" class="cls-16"/><path d="m647.73 496.04-12.58-16.56h1.64l10.94 14.41z" class="cls-151"/><path d="m647.73 498.2-14.22-18.72h1.64l12.58 16.56z" class="cls-186"/><path d="m647.73 500.36-15.86-20.88h1.64l14.22 18.72z" class="cls-121"/><path d="m647.73 502.52-17.5-23.04h1.64l15.86 20.88z" class="cls-41"/><path d="m647.73 504.67-19.14-25.19h1.64l17.5 23.04z" class="cls-100"/><path d="m647.73 506.83-20.78-27.35h1.64l19.14 25.19z" class="cls-175"/><path d="m647.73 508.99-22.42-29.51h1.64l20.78 27.35z" class="cls-180"/><path d="m647.73 511.15-24.06-31.67h1.64l22.42 29.51z" class="cls-156"/><path d="m647.73 513.3-25.7-33.82h1.64l24.06 31.67z" class="cls-12"/><path d="m647.73 515.46-27.34-35.98h1.64l25.7 33.82z" class="cls-173"/><path d="m647.73 517.62-28.98-38.14h1.64l27.34 35.98z" class="cls-149"/><path d="m647.73 519.78-30.62-40.3h1.64l28.98 38.14z" class="cls-189"/><path d="m647.73 521.93-32.26-42.45h1.64l30.62 40.3z" class="cls-43"/><path d="m647.73 524.09-33.9-44.61h1.64l32.26 42.45z" class="cls-161"/><path d="m647.73 526.25-35.54-46.77h1.64l33.9 44.61z" class="cls-111"/><path d="m647.73 528.41-37.18-48.93h1.64l35.54 46.77z" class="cls-34"/><path d="m647.73 530.56-38.82-51.08h1.64l37.18 48.93z" class="cls-137"/><path d="m647.73 532.72-40.46-53.24h1.64l38.82 51.08z" class="cls-128"/><path d="m647.73 534.88-42.1-55.4h1.64l40.46 53.24z" class="cls-26"/><path d="m647.73 537.04-43.74-57.56h1.64l42.1 55.4z" class="cls-139"/><path d="m647.73 539.19-45.38-59.71h1.64l43.74 57.56z" class="cls-162"/><path d="m647.73 541.35-47.02-61.87h1.64l45.38 59.71z" class="cls-148"/><path d="m647.73 543.51-48.66-64.03h1.64l47.02 61.87z" class="cls-35"/><path d="m647.73 545.67-50.3-66.19h1.64l48.66 64.03z" class="cls-158"/><path d="m647.73 547.82-51.94-68.34h1.64l50.3 66.19z" class="cls-45"/><path d="m647.73 549.98-53.58-70.5h1.64l51.94 68.34z" class="cls-184"/><path d="m647.73 552.14-55.22-72.66h1.64l53.58 70.5z" class="cls-54"/><path d="m647.73 554.3-56.86-74.82h1.64l55.22 72.66z" class="cls-79"/><path d="m647.73 556.45-58.5-76.97h1.64l56.86 74.82z" class="cls-22"/><path d="m647.73 558.61-60.14-79.13h1.64l58.5 76.97z" class="cls-113"/><path d="m647.73 560.45-.15.12-61.63-81.09h1.64l60.14 79.13z" class="cls-61"/><path d="m647.58 560.57-1.04.79-62.22-81.88h1.63z" class="cls-122"/><path d="m646.54 561.36-1.04.79-62.82-82.67h1.64z" class="cls-166"/><path d="m645.5 562.15-1.04.79-63.42-83.46h1.64z" class="cls-105"/><path d="m644.46 562.94-1.04.79-64.02-84.25h1.64z" class="cls-112"/><path d="m643.42 563.73-1.04.79-64.62-85.04h1.64z" class="cls-28"/><path d="m642.38 564.52-1.04.79-65.22-85.83h1.64z" class="cls-170"/><path d="m641.34 565.31-1.04.79-65.82-86.62h1.64z" class="cls-183"/><path d="m640.3 566.1-1.04.79-66.42-87.41h1.64z" class="cls-159"/><path d="m639.26 566.89-1.04.79-67.02-88.2h1.64z" class="cls-32"/><path d="m638.22 567.68-1.04.79-67.62-88.99h1.64z" class="cls-76"/><path d="m637.18 568.47-1.03.78-68.23-89.77h1.64z" class="cls-17"/><path d="m636.15 569.25-1.04.79-68.83-90.56h1.64z" class="cls-7"/><path d="m635.11 570.04-1.04.79-69.43-91.35h1.64z" class="cls-46"/><path d="m634.07 570.83-1.04.79L563 479.48h1.64z" class="cls-88"/><path d="m633.03 571.62-1.04.79-70.63-92.93H563z" class="cls-106"/><path d="m631.99 572.41-1.04.79-71.23-93.72h1.64z" class="cls-67"/><path d="m630.95 573.2-1.04.79-71.83-94.51h1.64z" class="cls-74"/><path d="m629.91 573.99-1.04.79-72.43-95.3h1.64z" class="cls-2"/><path d="m628.87 574.78-1.04.79-73.03-96.09h1.64z" class="cls-77"/><path d="m627.83 575.57-1.04.79-73.63-96.88h1.64z" class="cls-172"/><path d="m626.79 576.36-1.04.79-74.23-97.67h1.64z" class="cls-185"/><path d="m625.75 577.15-1.04.79-74.83-98.46h1.64z" class="cls-142"/><path d="m624.71 577.94-1.04.79-75.43-99.25h1.64z" class="cls-71"/><path d="m623.67 578.73-1.04.79-76.03-100.04h1.64z" class="cls-64"/><path d="m622.63 579.52-1.04.79-76.63-100.83h1.64z" class="cls-21"/><path d="m621.59 580.31-1.03.79-77.24-101.62h1.64z" class="cls-58"/><path d="m620.56 581.1-1.04.79-77.84-102.41h1.64z" class="cls-44"/><path d="m619.52 581.89-1.04.79-78.44-103.2h1.64z" class="cls-144"/><path d="m618.48 582.68-1.04.79-79.04-103.99h1.64z" class="cls-188"/><path d="m617.44 583.47-1.04.79-79.64-104.78h1.64z" class="cls-98"/><path d="m616.4 584.26-1.04.79-80.24-105.57h1.64z" class="cls-181"/><path d="m615.36 585.05-1.04.79-80.83-106.36h1.63z" class="cls-10"/><path d="m614.32 585.84-1.04.79-81.43-107.15h1.64z" class="cls-78"/><path d="m613.28 586.63-1.04.79-82.03-107.94h1.64z" class="cls-97"/><path d="m612.24 587.42-1.04.79-82.63-108.73h1.64z" class="cls-37"/><path d="m611.2 588.21-1.04.79-83.23-109.52h1.64z" class="cls-127"/><path d="m610.16 589-1.04.79-83.83-110.31h1.64z" class="cls-69"/><path d="m609.12 589.79-1.04.79-84.43-111.1h1.64z" class="cls-23"/><path d="m608.08 590.58-1.04.79-85.03-111.89h1.64z" class="cls-87"/><path d="m607.04 591.37-1.04.79-85.63-112.68h1.64z" class="cls-145"/><path d="m606 592.16-1.03.79-86.24-113.47h1.64z" class="cls-101"/><path d="m604.97 592.95-1.04.79-86.84-114.26h1.64z" class="cls-155"/><path d="m603.93 593.74-1.04.79-87.44-115.05h1.64z" class="cls-150"/><path d="m602.89 594.53-1.04.79-88.04-115.84h1.64z" class="cls-153"/><path d="m601.85 595.32-1.04.79-88.64-116.63h1.64z" class="cls-27"/><path d="m600.81 596.11-1.04.79-89.24-117.42h1.64z" class="cls-102"/><path d="m599.77 596.9-1.04.79-89.84-118.21h1.64z" class="cls-40"/><path d="m598.73 597.69-1.04.79-90.44-119h1.64z" class="cls-124"/><path d="m597.69 598.48-1.04.79-91.04-119.79h1.64z" class="cls-8"/><path d="m596.65 599.27-1.04.79-91.64-120.58h1.64z" class="cls-73"/><path d="m595.61 600.06-1.04.79-92.24-121.37h1.64z" class="cls-116"/><path d="m594.57 600.85-1.04.79-92.84-122.16h1.64z" class="cls-14"/><path d="m593.53 601.64-1.04.79-93.44-122.95h1.64z" class="cls-92"/><path d="m592.49 602.43-1.04.79-94.04-123.74h1.64z" class="cls-18"/><path d="m591.45 603.22-1.04.79-94.64-124.53h1.64z" class="cls-191"/><path d="m590.41 604.01-1.04.79-95.24-125.32h1.64z" class="cls-123"/><path d="m589.37 604.8-1.03.79-95.85-126.11h1.64z" class="cls-141"/><path d="m588.34 605.59-1.04.79-96.45-126.9h1.64z" class="cls-86"/><path d="m587.3 606.38-1.04.79-97.05-127.69h1.64z" class="cls-33"/><path d="m586.26 607.17-1.04.79-97.65-128.48h1.64z" class="cls-5"/><path d="m585.22 607.96-1.04.79-98.25-129.27h1.64z" class="cls-179"/><path d="m584.18 608.75-1.04.79-98.85-130.06h1.64z" class="cls-60"/><path d="m583.14 609.54-1.04.79-99.44-130.85h1.63z" class="cls-30"/><path d="m582.1 610.33-1.04.79-100.04-131.64h1.64z" class="cls-89"/><path d="m581.06 611.12-1.04.79-100.64-132.43h1.64z" class="cls-81"/><path d="m580.02 611.91-1.04.79-101.24-133.22h1.64z" class="cls-133"/><path d="m578.98 612.7-1.04.79L476.1 479.48h1.64z" class="cls-108"/><path d="m577.94 613.49-1.04.79-102.44-134.8h1.64z" class="cls-75"/><path d="m576.9 614.28-1.04.79-103.04-135.59h1.64z" class="cls-152"/><path d="m575.86 615.07-1.04.79-103.64-136.38h1.64z" class="cls-146"/><path d="m574.82 615.86-1.04.79-104.24-137.17h1.64z" class="cls-174"/><path d="m573.78 616.65-1.03.79L467.9 479.48h1.64z" class="cls-62"/><path d="m572.75 617.44-1.04.79-105.45-138.75h1.64z" class="cls-53"/><path d="m571.71 618.23-1.04.79-106.05-139.54h1.64z" class="cls-91"/><path d="m570.67 619.02-1.04.79-106.65-140.33h1.64z" class="cls-85"/><path d="m569.63 619.81-1.04.79-107.25-141.12h1.64z" class="cls-56"/><path d="m568.59 620.6-1.04.79L459.7 479.48h1.64z" class="cls-31"/><path d="m567.55 621.39-1.04.79-108.45-142.7h1.64z" class="cls-1"/><path d="m566.51 622.18-1.04.79-109.05-143.49h1.64z" class="cls-134"/><path d="m565.47 622.97-1.04.79-109.65-144.28h1.64z" class="cls-140"/><path d="m564.43 623.76-1.04.79-110.25-145.07h1.64z" class="cls-36"/><path d="m563.39 624.55-1.04.79L451.5 479.48h1.64z" class="cls-59"/><path d="m562.35 625.34-1.04.79-111.45-146.65h1.64z" class="cls-95"/><path d="m561.31 626.13-1.04.79-112.05-147.44h1.64z" class="cls-66"/><path d="m560.27 626.92-1.04.79-112.65-148.23h1.64z" class="cls-107"/><path d="m559.23 627.71-1.04.79-113.25-149.02h1.64z" class="cls-99"/><path d="m558.19 628.5-1.04.79L443.3 479.48h1.64z" class="cls-110"/><path d="m557.15 629.29-1.03.79-114.46-150.6h1.64z" class="cls-154"/><path d="m556.12 630.08-1.04.79-115.06-151.39h1.64z" class="cls-157"/><path d="m555.08 630.87-1.04.79-115.66-152.18h1.64z" class="cls-39"/><path d="m554.04 631.66-1.04.79-116.26-152.97h1.64z" class="cls-147"/><path d="m553 632.45-1.04.79L435.1 479.48h1.64z" class="cls-57"/><path d="m551.96 633.24-1.04.79-117.46-154.55h1.64z" class="cls-160"/><path d="m550.92 634.03-1.04.79-118.06-155.34h1.64z" class="cls-80"/><path d="m549.88 634.82-1.04.79-118.65-156.13h1.63z" class="cls-169"/><path d="m548.84 635.61-1.04.79-119.25-156.92h1.64z" class="cls-6"/><path d="m547.8 636.4-1.04.79-119.85-157.71h1.64z" class="cls-132"/><path d="m546.76 637.19-1.04.79-120.45-158.5h1.64z" class="cls-130"/><path d="m545.72 637.98-1.04.79-121.05-159.29h1.64z" class="cls-68"/><path d="m544.68 638.77-1.04.79-121.65-160.08h1.64z" class="cls-117"/><path d="m543.64 639.56-1.04.79-122.25-160.87h1.64z" class="cls-11"/><path d="m542.6 640.35-1.04.79-122.85-161.66h1.64z" class="cls-171"/><path d="m541.56 641.14-1.03.79-123.46-162.45h1.64z" class="cls-3"/><path d="m540.53 641.93-1.04.79-124.06-163.24h1.64z" class="cls-4"/><path d="m539.49 642.72-1.04.79-124.66-164.03h1.64z" class="cls-55"/><path d="m538.45 643.51-1.04.79-125.26-164.82h1.64z" class="cls-118"/><path d="m537.41 644.3-1.04.79-125.55-165.2.54-.41h.79z" class="cls-49"/><path d="m409.774 480.742 1.043-.793 125.535 165.206-1.043.793z" class="cls-48"/><path d="m408.734 481.53 1.043-.793 125.535 165.207-1.043.792z" class="cls-126"/><path d="m534.29 646.67-.89.67h-.23L407.7 482.26l1.04-.79z" class="cls-168"/><path d="M531.53 647.34 406.66 483.05l1.04-.79 125.47 165.08z" class="cls-165"/><path d="m529.89 647.34-124.27-163.5 1.04-.79 124.87 164.29z" class="cls-114"/><path d="M528.25 647.34 404.58 484.63l1.04-.79 124.27 163.5z" class="cls-38"/><path d="M526.61 647.34 403.55 485.42l1.03-.79 123.67 162.71z" class="cls-104"/><path d="M524.97 647.34 402.51 486.21l1.04-.79 123.06 161.92z" class="cls-82"/><path d="M523.33 647.34 401.47 487l1.04-.79 122.46 161.13z" class="cls-182"/><path d="M521.69 647.34 400.43 487.79l1.04-.79 121.86 160.34z" class="cls-63"/><path d="M520.05 647.34 399.39 488.58l1.04-.79 121.26 159.55z" class="cls-13"/><path d="M518.41 647.34 398.35 489.37l1.04-.79 120.66 158.76z" class="cls-9"/><path d="M516.77 647.34 397.31 490.16l1.04-.79 120.06 157.97z" class="cls-131"/><path d="M515.13 647.34 396.27 490.95l1.04-.79 119.46 157.18z" class="cls-29"/><path d="m513.49 647.34-118.26-155.6 1.04-.79 118.86 156.39z" class="cls-90"/><path d="M511.85 647.34 394.19 492.53l1.04-.79 118.26 155.6z" class="cls-19"/><path d="M510.21 647.34 393.15 493.32l1.04-.79 117.66 154.81z" class="cls-47"/><path d="M508.57 647.34 392.11 494.11l1.04-.79 117.06 154.02z" class="cls-120"/><path d="M506.93 647.34 391.07 494.9l1.04-.79 116.46 153.23z" class="cls-138"/><path d="M505.29 647.34 390.03 495.69l1.04-.79 115.86 152.44z" class="cls-190"/><path d="M503.65 647.34 388.99 496.48l1.04-.79 115.26 151.65z" class="cls-50"/><path d="M502.01 647.34 387.95 497.27l1.04-.79 114.66 150.86z" class="cls-109"/><path d="M500.37 647.34 386.92 498.06l1.03-.79 114.06 150.07zM373.02 508.62l13.9-10.56 113.45 149.28H373.02z" class="cls-52"/></g><g style="clip-path:url(#clippath-6)"><path d="M177.27 140.76h1.33v466.35h-1.33z" class="cls-186"/><path d="M178.6 140.76h1.68v466.35h-1.68z" class="cls-121"/><path d="M180.27 140.76h1.68v466.35h-1.68z" class="cls-41"/><path d="M181.95 140.76h1.68v466.35h-1.68z" class="cls-100"/><path d="M183.63 140.76h1.68v466.35h-1.68z" class="cls-175"/><path d="M185.3 140.76h1.68v466.35h-1.68z" class="cls-180"/><path d="M186.98 140.76h1.68v466.35h-1.68z" class="cls-156"/><path d="M188.66 140.76h1.68v466.35h-1.68z" class="cls-12"/><path d="M190.34 140.76h1.68v466.35h-1.68z" class="cls-173"/><path d="M192.01 140.76h1.68v466.35h-1.68z" class="cls-149"/><path d="M193.69 140.76h1.68v466.35h-1.68z" class="cls-189"/><path d="M195.37 140.76h1.68v466.35h-1.68z" class="cls-43"/><path d="M197.04 140.76h1.68v466.35h-1.68z" class="cls-161"/><path d="M198.72 140.76h1.68v466.35h-1.68z" class="cls-111"/><path d="M200.4 140.76h1.68v466.35h-1.68z" class="cls-34"/><path d="M202.07 140.76h1.68v466.35h-1.68z" class="cls-137"/><path d="M203.75 140.76h1.68v466.35h-1.68z" class="cls-128"/><path d="M205.43 140.76h1.68v466.35h-1.68z" class="cls-26"/><path d="M207.1 140.76h1.68v466.35h-1.68z" class="cls-139"/><path d="M208.78 140.76h1.68v466.35h-1.68z" class="cls-162"/><path d="M210.46 140.76h1.68v466.35h-1.68z" class="cls-148"/><path d="M212.13 140.76h1.68v466.35h-1.68z" class="cls-35"/><path d="M213.81 140.76h1.68v466.35h-1.68z" class="cls-158"/><path d="M215.49 140.76h1.68v466.35h-1.68z" class="cls-45"/><path d="M217.16 140.76h1.68v466.35h-1.68z" class="cls-184"/><path d="M218.84 140.76h1.68v466.35h-1.68z" class="cls-54"/><path d="M220.52 140.76h1.68v466.35h-1.68z" class="cls-79"/><path d="M222.19 140.76h1.68v466.35h-1.68z" class="cls-22"/><path d="M223.87 140.76h1.68v466.35h-1.68z" class="cls-113"/><path d="M225.55 140.76h1.68v466.35h-1.68z" class="cls-61"/><path d="M227.23 140.76h1.68v466.35h-1.68z" class="cls-122"/><path d="M228.9 140.76h1.68v466.35h-1.68z" class="cls-166"/><path d="M230.58 140.76h1.68v466.35h-1.68z" class="cls-105"/><path d="M232.26 140.76h1.68v466.35h-1.68z" class="cls-112"/><path d="M233.93 140.76h1.68v466.35h-1.68z" class="cls-28"/><path d="M235.61 140.76h1.68v466.35h-1.68z" class="cls-170"/><path d="M237.29 140.76h1.68v466.35h-1.68z" class="cls-183"/><path d="M238.96 140.76h1.68v466.35h-1.68z" class="cls-159"/><path d="M240.64 140.76h1.68v466.35h-1.68z" class="cls-32"/><path d="M242.32 140.76H244v466.35h-1.68z" class="cls-76"/><path d="M243.99 140.76h1.68v466.35h-1.68z" class="cls-17"/><path d="M245.67 140.76h1.68v466.35h-1.68z" class="cls-7"/><path d="M247.35 140.76h1.68v466.35h-1.68z" class="cls-46"/><path d="M249.02 140.76h1.68v466.35h-1.68z" class="cls-88"/><path d="M250.7 140.76h1.68v466.35h-1.68z" class="cls-106"/><path d="M252.38 140.76h1.68v466.35h-1.68z" class="cls-67"/><path d="M254.05 140.76h1.68v466.35h-1.68z" class="cls-74"/><path d="M255.73 140.76h1.68v466.35h-1.68z" class="cls-2"/><path d="M257.41 140.76h1.68v466.35h-1.68z" class="cls-77"/><path d="M259.08 140.76h1.68v466.35h-1.68z" class="cls-172"/><path d="M260.76 140.76h1.68v466.35h-1.68z" class="cls-185"/><path d="M262.44 140.76h1.68v466.35h-1.68z" class="cls-142"/><path d="M264.12 140.76h1.68v466.35h-1.68z" class="cls-71"/><path d="M265.79 140.76h1.68v466.35h-1.68z" class="cls-64"/><path d="M267.47 140.76h1.68v466.35h-1.68z" class="cls-21"/><path d="M269.15 140.76h1.68v466.35h-1.68z" class="cls-58"/><path d="M270.82 140.76h1.68v466.35h-1.68z" class="cls-44"/><path d="M272.5 140.76h1.68v466.35h-1.68z" class="cls-144"/><path d="M274.18 140.76h1.68v466.35h-1.68z" class="cls-188"/><path d="M275.85 140.76h1.68v466.35h-1.68z" class="cls-98"/><path d="M277.53 140.76h1.68v466.35h-1.68z" class="cls-181"/><path d="M279.21 140.76h1.68v466.35h-1.68z" class="cls-10"/><path d="M280.88 140.76h1.68v466.35h-1.68z" class="cls-78"/><path d="M282.56 140.76h1.68v466.35h-1.68z" class="cls-97"/><path d="M284.24 140.76h1.68v466.35h-1.68z" class="cls-37"/><path d="M285.91 140.76h1.68v466.35h-1.68z" class="cls-127"/><path d="M287.59 140.76h1.68v466.35h-1.68z" class="cls-69"/><path d="M289.27 140.76h1.68v466.35h-1.68z" class="cls-23"/><path d="M290.94 140.76h1.68v466.35h-1.68z" class="cls-87"/><path d="M292.62 140.76h1.68v466.35h-1.68z" class="cls-145"/><path d="M294.3 140.76h1.68v466.35h-1.68z" class="cls-101"/><path d="M295.97 140.76h1.68v466.35h-1.68z" class="cls-155"/><path d="M297.65 140.76h1.68v466.35h-1.68z" class="cls-150"/><path d="M299.33 140.76h1.68v466.35h-1.68z" class="cls-153"/><path d="M301.01 140.76h1.68v466.35h-1.68z" class="cls-27"/><path d="M302.68 140.76h1.68v466.35h-1.68z" class="cls-102"/><path d="M304.36 140.76h1.68v466.35h-1.68z" class="cls-40"/><path d="M306.04 140.76h1.68v466.35h-1.68z" class="cls-124"/><path d="M307.71 140.76h1.68v466.35h-1.68z" class="cls-8"/><path d="M309.39 140.76h1.68v466.35h-1.68z" class="cls-73"/><path d="M311.07 140.76h1.68v466.35h-1.68z" class="cls-116"/><path d="M312.74 140.76h1.68v466.35h-1.68z" class="cls-14"/><path d="M314.42 140.76h1.68v466.35h-1.68z" class="cls-92"/><path d="M316.1 140.76h1.68v466.35h-1.68z" class="cls-18"/><path d="M317.77 140.76h1.68v466.35h-1.68z" class="cls-191"/><path d="M319.45 140.76h1.68v466.35h-1.68z" class="cls-123"/><path d="M321.13 140.76h1.68v466.35h-1.68z" class="cls-141"/><path d="M322.8 140.76h1.68v466.35h-1.68z" class="cls-86"/><path d="M324.48 140.76h1.68v466.35h-1.68z" class="cls-33"/><path d="M326.16 140.76h1.68v466.35h-1.68z" class="cls-5"/><path d="M327.83 140.76h1.68v466.35h-1.68z" class="cls-179"/><path d="M329.51 140.76h1.68v466.35h-1.68z" class="cls-60"/><path d="M331.19 140.76h1.68v466.35h-1.68z" class="cls-30"/><path d="M332.87 140.76h1.68v466.35h-1.68z" class="cls-89"/><path d="M334.54 140.76h1.68v466.35h-1.68z" class="cls-81"/><path d="M336.22 140.76h1.68v466.35h-1.68z" class="cls-133"/><path d="M337.9 140.76h1.68v466.35h-1.68z" class="cls-108"/><path d="M339.57 140.76h1.68v466.35h-1.68z" class="cls-75"/><path d="M341.25 140.76h1.68v466.35h-1.68z" class="cls-152"/><path d="M342.93 140.76h1.68v466.35h-1.68z" class="cls-146"/><path d="M344.6 140.76h1.68v466.35h-1.68z" class="cls-174"/><path d="M346.28 140.76h1.68v466.35h-1.68z" class="cls-62"/><path d="M347.96 140.76h1.68v466.35h-1.68z" class="cls-53"/><path d="M349.63 140.76h1.68v466.35h-1.68z" class="cls-91"/><path d="M351.31 140.76h1.68v466.35h-1.68z" class="cls-85"/><path d="M352.99 140.76h1.68v466.35h-1.68z" class="cls-56"/><path d="M354.66 140.76h1.68v466.35h-1.68z" class="cls-31"/><path d="M356.34 140.76h1.68v466.35h-1.68z" class="cls-1"/><path d="M358.02 140.76h1.68v466.35h-1.68z" class="cls-134"/><path d="M359.69 140.76h1.68v466.35h-1.68z" class="cls-140"/><path d="M361.37 140.76h1.68v466.35h-1.68z" class="cls-36"/><path d="M363.05 140.76h1.68v466.35h-1.68z" class="cls-59"/><path d="M364.72 140.76h1.68v466.35h-1.68z" class="cls-95"/><path d="M366.4 140.76h1.68v466.35h-1.68z" class="cls-66"/><path d="M368.08 140.76h1.68v466.35h-1.68z" class="cls-107"/><path d="M369.76 140.76h1.68v466.35h-1.68z" class="cls-99"/><path d="M371.43 140.76h1.68v466.35h-1.68z" class="cls-110"/><path d="M373.11 140.76h1.68v466.35h-1.68z" class="cls-154"/><path d="M374.79 140.76h1.68v466.35h-1.68z" class="cls-157"/><path d="M376.46 140.76h1.68v466.35h-1.68z" class="cls-39"/><path d="M378.14 140.76h1.68v466.35h-1.68z" class="cls-147"/><path d="M379.82 140.76h1.68v466.35h-1.68z" class="cls-57"/><path d="M381.49 140.76h1.68v466.35h-1.68z" class="cls-160"/><path d="M383.17 140.76h1.68v466.35h-1.68z" class="cls-80"/><path d="M384.85 140.76h1.68v466.35h-1.68z" class="cls-169"/><path d="M386.52 140.76h1.68v466.35h-1.68z" class="cls-6"/><path d="M388.2 140.76h1.68v466.35h-1.68z" class="cls-132"/><path d="M389.88 140.76h1.68v466.35h-1.68z" class="cls-130"/><path d="M391.55 140.76h1.68v466.35h-1.68z" class="cls-68"/><path d="M393.23 140.76h1.68v466.35h-1.68z" class="cls-117"/><path d="M394.91 140.76h1.68v466.35h-1.68z" class="cls-11"/><path d="M396.58 140.76h1.68v466.35h-1.68z" class="cls-171"/><path d="M398.26 140.76h1.68v466.35h-1.68z" class="cls-3"/><path d="M399.94 140.76h1.68v466.35h-1.68z" class="cls-4"/><path d="M401.61 140.76h1.68v466.35h-1.68z" class="cls-55"/><path d="M403.29 140.76h1.68v466.35h-1.68z" class="cls-118"/><path d="M404.97 140.76h1.68v466.35h-1.68z" class="cls-49"/><path d="M406.65 140.76h1.68v466.35h-1.68z" class="cls-48"/><path d="M408.32 140.76H410v466.35h-1.68z" class="cls-126"/><path d="M410 140.76h1.68v466.35H410z" class="cls-168"/><path d="M411.68 140.76h1.68v466.35h-1.68z" class="cls-165"/><path d="M413.35 140.76h1.68v466.35h-1.68z" class="cls-114"/><path d="M415.03 140.76h1.68v466.35h-1.68z" class="cls-38"/><path d="M416.71 140.76h1.68v466.35h-1.68z" class="cls-104"/><path d="M418.38 140.76h1.68v466.35h-1.68z" class="cls-82"/><path d="M420.06 140.76h1.68v466.35h-1.68z" class="cls-182"/><path d="M421.74 140.76h1.68v466.35h-1.68z" class="cls-63"/><path d="M423.41 140.76h1.68v466.35h-1.68z" class="cls-13"/><path d="M425.09 140.76h1.68v466.35h-1.68z" class="cls-9"/><path d="M426.77 140.76h1.68v466.35h-1.68z" class="cls-131"/><path d="M428.44 140.76h1.68v466.35h-1.68z" class="cls-29"/><path d="M430.12 140.76h1.68v466.35h-1.68z" class="cls-90"/><path d="M431.8 140.76h1.68v466.35h-1.68z" class="cls-19"/><path d="M433.47 140.76h1.68v466.35h-1.68z" class="cls-47"/><path d="M435.15 140.76h1.68v466.35h-1.68z" class="cls-120"/><path d="M436.83 140.76h1.68v466.35h-1.68z" class="cls-138"/><path d="M438.5 140.76h1.68v466.35h-1.68z" class="cls-190"/><path d="M440.18 140.76h1.68v466.35h-1.68z" class="cls-50"/><path d="M441.86 140.76h1.68v466.35h-1.68z" class="cls-109"/><path d="M443.54 140.76h1.68v466.35h-1.68z" class="cls-52"/><path d="M445.21 140.76h162.36v466.35H445.21z" class="cls-52"/></g></svg>