<svg width="901" height="117" viewBox="0 0 901 117" fill="none" xmlns="http://www.w3.org/2000/svg">
<path d="M70.14 9.58002C70.14 11.31 69.86 12.93 69.31 14.43L43.17 84.22C41.52 88.64 38.87 90.84 35.25 90.84C31.63 90.84 29.06 88.83 27.56 84.8L1.06003 14.27C0.360028 12.62 0 11.05 0 9.55002C0 7.35002 0.67001 5.54 2.01001 4.13C3.35001 2.72 5.08001 2.01001 7.20001 2.01001C10.66 2.01001 13.22 4.34003 14.87 9.00003L35.35 66.24C35.43 66.08 35.55 65.85 35.7 65.53L55.35 9.22003C56.93 4.73003 59.53 2.48001 63.16 2.48001C67.81 2.48001 70.14 4.85002 70.14 9.58002Z" fill="#0152D1"/>
<path d="M92.7299 8.75C92.7299 11.19 91.8798 13.28 90.1898 15.02C88.4898 16.75 86.4199 17.62 83.9799 17.62C81.5399 17.62 79.4499 16.75 77.7099 15.02C75.9699 13.29 75.1099 11.19 75.1099 8.75C75.1099 6.31 75.9799 4.23998 77.7099 2.53998C79.4399 0.849978 81.5299 0 83.9799 0C86.4299 0 88.3999 0.869976 90.1299 2.59998C91.8599 4.32998 92.7299 6.38 92.7299 8.75ZM91.4299 80.8C91.4299 87.26 88.9299 90.48 83.9199 90.48C78.9099 90.48 76.4099 87.25 76.4099 80.8V34.16C76.4099 27.71 78.9099 24.48 83.9199 24.48C88.9299 24.48 91.4299 27.67 91.4299 34.04V80.8Z" fill="#0152D1"/>
<path d="M160.39 80.91C160.39 87.3 157.85 90.49 152.76 90.49C147.67 90.49 145.37 87.3 145.37 80.91V52.17C145.37 42.31 141.19 37.38 132.83 37.38C124.47 37.38 120.41 42.29 120.41 52.1V80.72C120.41 87.24 117.95 90.49 113.02 90.49C108.09 90.49 105.39 87.23 105.39 80.71V34.51C105.39 28.07 107.87 24.85 112.84 24.85C115.52 24.85 117.49 25.91 118.76 28.04C119.15 29.15 119.59 30.29 120.06 31.47L120.18 31.71C124.2 26.9 129.92 24.49 137.33 24.49C144.74 24.49 150.54 26.72 154.48 31.17C158.42 35.63 160.4 41.64 160.4 49.21V80.91H160.39Z" fill="#0152D1"/>
<path d="M268.5 31.5799C268.5 37.4899 267.12 42.7399 264.35 47.3099C261.43 52.1199 257.27 55.5899 251.9 57.7199C248.42 59.1399 244.51 59.8499 240.16 59.8499H224.74V81.1399C224.74 87.5299 222.2 90.7199 217.11 90.7199C212.02 90.7199 209.71 87.4899 209.71 81.0199V13.2399C209.71 6.69993 212.82 3.41992 219.05 3.41992H238.69C247.6 3.41992 254.8 5.89993 260.28 10.8699C265.76 15.8399 268.5 22.7399 268.5 31.5699V31.5799ZM252.53 31.3399C252.53 21.7999 247.3 17.0299 236.85 17.0299H224.73V46.2499H236.61C241.36 46.2499 245.2 44.9499 248.13 42.3499C251.06 39.7499 252.52 36.0799 252.52 31.3499L252.53 31.3399Z" fill="#0152D1"/>
<path d="M334.86 57.5999C334.86 66.9799 332.18 74.8299 326.82 81.1399C321.22 87.7599 313.81 91.0799 304.58 91.0799C295.35 91.0799 288.1 87.7299 282.34 81.0299C276.9 74.6399 274.18 66.8399 274.18 57.6099C274.18 48.3799 276.86 40.3799 282.22 34.0699C287.98 27.2899 295.43 23.8999 304.58 23.8999C313.73 23.8999 321.34 27.2499 326.94 33.9499C332.22 40.2599 334.87 48.1399 334.87 57.6099L334.86 57.5999ZM304.58 37.4899C299.41 37.4899 295.44 39.6299 292.66 43.8999C290.35 47.5399 289.2 52.0899 289.2 57.5399C289.2 62.9899 290.39 67.4299 292.78 71.0699C295.56 75.3399 299.49 77.4799 304.58 77.4799C309.67 77.4799 313.68 75.3499 316.38 71.0699C318.68 67.5099 319.84 62.9999 319.84 57.5399C319.84 52.0799 318.69 47.6599 316.38 44.0099C313.6 39.6599 309.66 37.4899 304.58 37.4899Z" fill="#0152D1"/>
<path d="M429.6 31.82C429.6 33 429.28 34.5 428.66 36.32L412.25 83.63C410.52 88.52 407.72 90.96 403.87 90.96C399.46 90.96 396.51 88.31 395.02 83.02L384.63 46.23L384.11 46.26L373.51 82.79C371.94 88.24 369.02 90.96 364.77 90.96C360.52 90.96 357.68 88.24 355.79 82.78L341.14 40.6C339.49 35.86 338.66 32.82 338.66 31.48C338.66 29.43 339.33 27.75 340.67 26.44C342.01 25.14 343.7 24.49 345.76 24.49C349.55 24.49 352.11 26.67 353.45 31.01L365.63 71.33C365.71 71.17 365.79 70.94 365.87 70.62L376.87 31.35C378.21 26.62 380.66 24.25 384.2 24.25C387.74 24.25 390.23 26.66 391.65 31.47L403.24 71.1C403.32 70.94 403.4 70.75 403.48 70.51L415.31 30.89C416.57 26.63 419.05 24.5 422.76 24.5C424.89 24.5 426.56 25.19 427.79 26.57C429.01 27.95 429.62 29.7 429.62 31.83L429.6 31.82Z" fill="#0152D1"/>
<path d="M492.77 53.9399C492.77 56.5399 491.92 58.5699 490.22 60.0299C488.52 61.4899 486.33 62.2199 483.64 62.2199H447.71C447.87 66.8699 449.53 70.6399 452.69 73.5199C455.85 76.3999 459.77 77.8399 464.43 77.8399C468.3 77.8399 472.67 76.5999 477.54 74.1099C482.41 71.6199 485.07 70.3799 485.55 70.3799C489.5 70.3799 491.48 72.3899 491.48 76.4099C491.48 77.6699 490.89 79.0899 489.71 80.6699C487.19 83.9799 483.32 86.5899 478.12 88.4799C473.55 90.1299 468.85 90.9599 464.04 90.9599C454.66 90.9599 447.01 87.6499 441.09 81.0199C435.49 74.7099 432.69 66.7899 432.69 57.2399C432.69 47.6899 435.55 40.1499 441.27 33.6399C446.99 27.1299 454.42 23.8799 463.57 23.8799C471.61 23.8799 478.49 26.8599 484.21 32.8099C489.93 38.7599 492.79 45.7999 492.79 53.9199L492.77 53.9399ZM477.98 51.9299C477.82 47.5099 476.46 43.8099 473.9 40.8099C471.34 37.8099 467.89 36.3199 463.55 36.3199C459.21 36.3199 455.57 37.8199 452.61 40.8099C449.65 43.8099 448.02 47.5099 447.7 51.9299H477.98Z" fill="#0152D1"/>
<path d="M538.9 31.57C538.9 34.09 537.48 36.1 534.64 37.59C531.72 38.77 528.8 39.95 525.89 41.13C522.34 42.7 520.01 44.71 518.91 47.15C517.96 49.2 517.49 52.31 517.49 56.48V81.04C517.49 87.34 514.97 90.49 509.92 90.49C504.87 90.49 502.47 87.3 502.47 80.93V34.41C502.47 28.03 504.95 24.85 509.92 24.85C512.84 24.85 514.81 26.15 515.83 28.75C516.07 29.93 516.54 31.43 517.25 33.25H517.37C518.95 30.81 521.02 28.7 523.58 26.92C526.14 25.15 528.76 24.26 531.45 24.26C533.66 24.26 535.45 24.93 536.83 26.27C538.21 27.61 538.9 29.38 538.9 31.58V31.57Z" fill="#0152D1"/>
<path d="M653.87 50.3899C653.87 62.4499 650.6 72.1199 644.05 79.3699C637.19 86.9399 627.8 90.7299 615.9 90.7299C604 90.7299 594.37 86.2299 587.04 77.2499C580.1 68.8899 576.63 58.6399 576.63 46.4999C576.63 34.3599 580.18 23.5899 587.28 15.3899C594.69 6.71989 604.59 2.37988 616.97 2.37988C622.8 2.37988 628.33 3.28988 633.53 5.09988C639.84 7.30988 644.29 10.4599 646.9 14.5599C647.61 15.6599 647.97 16.8899 647.97 18.2299C647.97 22.7199 645.81 24.9699 641.48 24.9699C639.98 24.9699 638.64 24.5699 637.47 23.7699C634.79 21.9299 632.95 20.6899 631.92 20.0599C629.71 18.6999 627.67 17.7399 625.78 17.1799C623.18 16.3799 620.15 15.9799 616.69 15.9799C609.13 15.9799 603.12 19.1899 598.63 25.5999C594.77 31.2999 592.85 38.1499 592.85 46.1399C592.85 54.1299 594.74 61.2599 598.51 67.0399C602.91 73.7699 608.97 77.1299 616.68 77.1299C621 77.1299 624.96 76.1499 628.54 74.1699C632.12 72.1999 634.73 69.3199 636.39 65.5399C637.49 63.0999 638.04 58.7199 638.04 52.4099H624.56C618.41 52.4099 615.33 50.1499 615.33 45.6099C615.33 41.0699 618.41 38.8099 624.56 38.8099H643.6C647.62 38.8099 650.34 39.7199 651.76 41.5299C653.18 43.3499 653.89 46.2999 653.89 50.3999L653.87 50.3899Z" fill="#0152D1"/>
<path d="M699.64 31.57C699.64 34.09 698.22 36.1 695.38 37.59C692.46 38.77 689.54 39.95 686.63 41.13C683.08 42.7 680.75 44.71 679.65 47.15C678.7 49.2 678.23 52.31 678.23 56.48V81.04C678.23 87.34 675.71 90.49 670.66 90.49C665.61 90.49 663.21 87.3 663.21 80.93V34.41C663.21 28.03 665.69 24.85 670.66 24.85C673.58 24.85 675.55 26.15 676.57 28.75C676.81 29.93 677.28 31.43 677.99 33.25H678.11C679.69 30.81 681.76 28.7 684.32 26.92C686.88 25.15 689.5 24.26 692.19 24.26C694.4 24.26 696.19 24.93 697.57 26.27C698.95 27.61 699.64 29.38 699.64 31.58V31.57Z" fill="#0152D1"/>
<path d="M762.69 57.5999C762.69 66.9799 760.01 74.8299 754.65 81.1399C749.05 87.7599 741.64 91.0799 732.41 91.0799C723.18 91.0799 715.93 87.7299 710.17 81.0299C704.73 74.6399 702.01 66.8399 702.01 57.6099C702.01 48.3799 704.69 40.3799 710.05 34.0699C715.81 27.2899 723.26 23.8999 732.41 23.8999C741.56 23.8999 749.17 27.2499 754.77 33.9499C760.05 40.2599 762.7 48.1399 762.7 57.6099L762.69 57.5999ZM732.41 37.4899C727.24 37.4899 723.27 39.6299 720.49 43.8999C718.18 47.5399 717.03 52.0899 717.03 57.5399C717.03 62.9899 718.22 67.4299 720.61 71.0699C723.39 75.3399 727.32 77.4799 732.41 77.4799C737.5 77.4799 741.51 75.3499 744.21 71.0699C746.51 67.5099 747.67 62.9999 747.67 57.5399C747.67 52.0799 746.52 47.6599 744.21 44.0099C741.43 39.6599 737.49 37.4899 732.41 37.4899Z" fill="#0152D1"/>
<path d="M827.15 64.58C827.15 73.1 824.74 79.64 819.93 84.22C815.12 88.79 808.46 91.08 799.94 91.08C791.42 91.08 784.86 88.77 780.01 84.16C775.16 79.55 772.73 73.02 772.73 64.58V34.06C772.73 27.67 775.23 24.48 780.24 24.48C785.25 24.48 787.75 27.67 787.75 34.06V62.45C787.75 72.46 791.81 77.47 799.93 77.47C808.05 77.47 812.11 72.46 812.11 62.45V34.06C812.11 27.67 814.65 24.48 819.74 24.48C824.83 24.48 827.13 27.67 827.13 34.06V64.58H827.15Z" fill="#0152D1"/>
<path d="M900.25 57.49C900.25 66.61 897.84 74.34 893.03 80.71C887.75 87.7 880.69 91.2 871.86 91.2C865.39 91.2 860.03 88.8 855.77 83.98H855.42V106.57C855.42 113.27 853.01 116.62 848.2 116.62C843.15 116.62 840.63 113.27 840.63 106.57V34.18C840.63 27.72 843.11 24.48 848.08 24.48C851.23 24.48 853.36 25.94 854.47 28.86C854.63 29.57 854.94 30.56 855.42 31.82C858.82 26.93 864.39 24.49 872.14 24.49C881.08 24.49 888.11 27.87 893.25 34.63C897.91 40.68 900.25 48.3 900.25 57.5V57.49ZM885.23 57.61C885.23 52.31 884.12 47.91 881.92 44.4C879.32 40.19 875.49 38.09 870.45 38.09C865.41 38.09 861.46 40.04 858.62 43.93C856.1 47.36 854.84 51.69 854.84 56.9V59.82C854.84 64.57 856.18 68.67 858.86 72.1C861.78 75.76 865.6 77.59 870.33 77.59C875.45 77.59 879.36 75.45 882.04 71.16C884.17 67.57 885.23 63.06 885.23 57.6V57.61Z" fill="#0152D1"/>
</svg>
